<svg width="479" height="108" viewBox="0 0 479 108" fill="none" xmlns="http://www.w3.org/2000/svg">
<path fill-rule="evenodd" clip-rule="evenodd" d="M56.1537 8.95776C58.6168 8.95776 60.6135 6.96102 60.6135 4.49792C60.6135 2.03482 58.6168 0.0380859 56.1537 0.0380859C53.6906 0.0380859 51.6939 2.03482 51.6939 4.49792C51.6939 6.96102 53.6906 8.95776 56.1537 8.95776ZM38.4182 29.3545C37.2703 27.8706 36.3474 26.0172 36.833 24.205C37.3186 22.3928 39.0445 21.2492 40.7806 20.538C42.9589 19.6458 44.71 17.7824 45.3663 15.3332C46.4819 11.1696 44.0111 6.88999 39.8475 5.77437C35.684 4.65876 31.4044 7.12959 30.2887 11.2931C29.6325 13.7425 30.2173 16.2319 31.6578 18.0938C32.8058 19.5776 33.7287 21.431 33.2431 23.2431C32.7575 25.0553 31.0317 26.1989 29.2955 26.9099C27.1171 27.8021 25.3658 29.6656 24.7096 32.1149C23.5939 36.2785 26.0648 40.5581 30.2283 41.6737C34.3919 42.7893 38.6715 40.3185 39.7871 36.1549C40.4434 33.7057 39.8586 31.2164 38.4182 29.3545ZM86.1482 38.6266C84.3362 38.1411 82.483 39.0639 80.9994 40.2118C79.1375 41.6523 76.6479 42.2373 74.1986 41.5809C70.035 40.4653 67.5642 36.1857 68.6798 32.0222C69.7954 27.8586 74.075 25.3878 78.2386 26.5034C80.6877 27.1597 82.5512 28.9107 83.4434 31.089C84.1546 32.8252 85.2983 34.5512 87.1106 35.0368C88.9228 35.5224 90.7761 34.5996 92.2601 33.4518C94.1219 32.0117 96.6111 31.427 99.0601 32.0832C103.224 33.1989 105.694 37.4785 104.579 41.642C103.463 45.8056 99.1836 48.2764 95.0201 47.1608C92.5706 46.5044 90.707 44.753 89.8148 42.5743C89.1039 40.8381 87.9604 39.1122 86.1482 38.6266ZM103.562 77.1778C100.514 80.2257 95.5723 80.2257 92.5243 77.1778C90.7315 75.385 89.9933 72.937 90.3095 70.6046C90.5616 68.7456 90.434 66.6791 89.1074 65.3526C87.7808 64.026 85.7143 63.8984 83.8553 64.1505C81.5228 64.4668 79.0748 63.7285 77.2819 61.9357C74.234 58.8878 74.234 53.9461 77.2819 50.8982C80.3299 47.8503 85.2715 47.8503 88.3195 50.8982C90.1127 52.6915 90.8509 55.1403 90.534 57.4733C90.2816 59.332 90.4089 61.3981 91.7353 62.7245C93.0617 64.0509 95.1279 64.1782 96.9867 63.9257C99.3197 63.6088 101.769 64.347 103.562 66.1403C106.61 69.1882 106.61 74.1299 103.562 77.1778ZM64.1201 96.0387C63.0045 100.202 65.4753 104.482 69.6389 105.597C73.8024 106.713 78.082 104.242 79.1977 100.079C79.854 97.6293 79.2691 95.1398 77.8285 93.2779C76.6805 91.7942 75.7578 89.941 76.2433 88.129C76.7288 86.3171 78.4545 85.1735 80.1904 84.4626C82.3688 83.5704 84.1201 81.7069 84.7764 79.2576C85.892 75.094 83.4212 70.8144 79.2576 69.6988C75.0941 68.5832 70.8144 71.054 69.6988 75.2176C69.0425 77.667 69.6275 80.1566 71.0681 82.0185C72.2161 83.5022 73.1389 85.3553 72.6534 87.1673C72.1678 88.9792 70.4422 90.1227 68.7063 90.8336C66.5278 91.7258 64.7764 93.5893 64.1201 96.0387ZM28.837 99.7103C26.6818 95.9774 27.9607 91.2041 31.6937 89.0489C33.8898 87.781 36.4459 87.7016 38.6172 88.6113C40.3475 89.3361 42.3764 89.7478 44.0011 88.8099C45.6257 87.8719 46.2836 85.9088 46.521 84.0479C46.8189 81.7126 48.1657 79.5385 50.3618 78.2706C54.0947 76.1154 58.868 77.3944 61.0232 81.1273C63.1784 84.8602 61.8994 89.6335 58.1665 91.7887C55.9707 93.0565 53.4149 93.136 51.2438 92.2267C49.5133 91.502 47.4842 91.0903 45.8595 92.0284C44.2347 92.9665 43.5767 94.9296 43.3391 96.7907C43.041 99.1256 41.6942 101.299 39.4984 102.567C35.7655 104.722 30.9922 103.443 28.837 99.7103ZM28.4865 71.1602C27.0029 72.3082 25.1498 73.231 23.3379 72.7455C21.5259 72.2599 20.3825 70.5342 19.6716 68.7983C18.7795 66.6196 16.9159 64.8681 14.4664 64.2118C10.3028 63.0962 6.02323 65.567 4.90761 69.7305C3.792 73.8941 6.26283 78.1737 10.4264 79.2893C12.8756 79.9456 15.365 79.3608 17.2268 77.9204C18.7106 76.7725 20.5639 75.8498 22.3759 76.3353C24.188 76.8209 25.3316 78.5467 26.0426 80.2827C26.9349 82.461 28.7983 84.2122 31.2476 84.8684C35.4111 85.984 39.6907 83.5132 40.8064 79.3497C41.922 75.1861 39.4511 70.9065 35.2876 69.7909C32.8381 69.1345 30.3484 69.7195 28.4865 71.1602ZM5.92479 34.1947C8.97272 31.1467 13.9144 31.1467 16.9623 34.1947C18.7553 35.9876 19.4935 38.4359 19.177 40.7686C18.9248 42.6273 19.0524 44.6933 20.3787 46.0196C21.7052 47.3461 23.7716 47.4735 25.6305 47.2211C27.9634 46.9044 30.412 47.6426 32.2051 49.4358C35.2531 52.4837 35.2531 57.4254 32.2051 60.4733C29.1572 63.5212 24.2155 63.5212 21.1676 60.4733C19.3746 58.6803 18.6364 56.2319 18.9529 53.8992C19.2052 52.0405 19.0776 49.9745 17.7513 48.6482C16.4248 47.3217 14.3585 47.1943 12.4996 47.4468C10.1667 47.7636 7.71801 47.0254 5.92479 45.2322C2.87686 42.1843 2.87686 37.2426 5.92479 34.1947ZM65.4846 22.5623C63.8601 23.5002 63.2023 25.463 62.965 27.3237C62.6672 29.659 61.3204 31.8332 59.1242 33.1012C55.3912 35.2564 50.618 33.9774 48.4627 30.2444C46.3075 26.5115 47.5865 21.7382 51.3195 19.583C53.5153 18.3152 56.0712 18.2358 58.2424 19.1451C59.9728 19.8699 62.0019 20.2816 63.6267 19.3435C65.2513 18.4055 65.9093 16.4426 66.147 14.5818C66.4451 12.2469 67.7918 10.0734 69.9876 8.80565C73.7205 6.65044 78.4938 7.92944 80.649 11.6624C82.8042 15.3953 81.5252 20.1686 77.7923 22.3238C75.596 23.5918 73.0396 23.6711 70.8681 22.7612C69.138 22.0362 67.1091 21.6244 65.4846 22.5623ZM104.469 60.2458C106.932 60.2458 108.928 58.2491 108.928 55.786C108.928 53.3229 106.932 51.3262 104.469 51.3262C102.006 51.3262 100.009 53.3229 100.009 55.786C100.009 58.2491 102.006 60.2458 104.469 60.2458ZM96.2923 21.594C96.2923 24.0571 94.2955 26.0538 91.8324 26.0538C89.3693 26.0538 87.3726 24.0571 87.3726 21.594C87.3726 19.1309 89.3693 17.1342 91.8324 17.1342C94.2955 17.1342 96.2923 19.1309 96.2923 21.594ZM23.4484 20.1072C23.4484 22.5703 21.4516 24.567 18.9885 24.567C16.5254 24.567 14.5287 22.5703 14.5287 20.1072C14.5287 17.6441 16.5254 15.6473 18.9885 15.6473C21.4516 15.6473 23.4484 17.6441 23.4484 20.1072ZM4.86563 60.2458C7.32873 60.2458 9.32546 58.2491 9.32546 55.786C9.32546 53.3229 7.32873 51.3262 4.86563 51.3262C2.40253 51.3262 0.405792 53.3229 0.405792 55.786C0.405792 58.2491 2.40253 60.2458 4.86563 60.2458ZM22.7052 89.2346C22.7052 91.6977 20.7084 93.6945 18.2453 93.6945C15.7822 93.6945 13.7855 91.6977 13.7855 89.2346C13.7855 86.7715 15.7822 84.7748 18.2453 84.7748C20.7084 84.7748 22.7052 86.7715 22.7052 89.2346ZM52.4373 107.818C54.9004 107.818 56.8971 105.821 56.8971 103.358C56.8971 100.895 54.9004 98.8979 52.4373 98.8979C49.9742 98.8979 47.9774 100.895 47.9774 103.358C47.9774 105.821 49.9742 107.818 52.4373 107.818ZM95.5487 90.7213C95.5487 93.1844 93.552 95.1811 91.0889 95.1811C88.6258 95.1811 86.6291 93.1844 86.6291 90.7213C86.6291 88.2582 88.6258 86.2615 91.0889 86.2615C93.552 86.2615 95.5487 88.2582 95.5487 90.7213ZM54.4752 68.562C61.8667 68.562 67.8587 62.5701 67.8587 55.1785C67.8587 47.787 61.8667 41.795 54.4752 41.795C47.0837 41.795 41.0917 47.787 41.0917 55.1785C41.0917 62.5701 47.0837 68.562 54.4752 68.562Z" fill="white"/>
<path d="M250.204 68.8528C250.153 73.1951 251.423 77.4504 253.845 81.0546C256.267 84.6589 259.727 87.4421 263.767 89.0354C268.868 91.0804 274.096 91.2203 279.285 89.422C284.529 87.6122 288.097 83.754 291.09 79.1588C292.462 79.8778 293.815 80.5836 295.165 81.2976C296.061 81.7698 296.936 82.2848 297.854 82.7126C298.489 83.0071 298.625 83.2983 298.285 83.9597C295.786 88.8281 291.982 92.3868 287.262 95.0422C282.184 97.9001 276.696 99.0847 270.916 98.9086C263.03 98.6701 256.145 95.8895 250.493 90.3532C245.401 85.368 242.374 79.2674 241.271 72.2223C240.365 66.4294 240.508 60.6676 242.285 55.0622C245.539 44.7924 252.086 37.4891 262.583 34.5342C272.587 31.7175 281.969 33.3216 289.947 40.4094C294.94 44.8516 297.928 50.5015 299.28 57.0266C300.045 60.717 300.022 64.4303 299.537 68.1454C299.47 68.6554 299.302 68.8989 298.775 68.8528C298.53 68.8314 298.282 68.8528 298.035 68.8528H250.204ZM290.434 60.4998C290.225 53.6851 287.285 48.384 281.699 44.8072C274.74 40.3535 267.446 40.4719 260.383 44.6032C254.402 48.1027 251.202 53.5551 250.271 60.4998H290.434Z" fill="white"/>
<path d="M478.447 53.9189C478.534 61.6747 477.563 69.2742 474.701 76.5446C472.006 83.3939 468.019 89.2922 461.928 93.5929C457.358 96.8209 452.249 98.4942 446.67 98.8413C441.502 99.1704 436.497 98.5353 431.731 96.4458C425.668 93.7871 421.037 89.4666 417.485 83.9418C413.663 77.9892 411.512 71.4196 410.494 64.4503C409.537 57.9083 409.471 51.2667 410.298 44.707C411.356 36.2257 413.964 28.2938 419.183 21.4084C423.577 15.617 429.179 11.438 436.361 9.87173C446.891 7.56835 456.578 9.35511 464.824 16.716C469.503 20.8917 472.657 26.1155 474.888 31.9266C477.068 37.6044 478.134 43.5142 478.427 49.5704C478.508 51.0183 478.447 52.4711 478.447 53.9189ZM469.251 53.9748C469.22 49.7465 468.901 45.5724 468.008 41.4609C466.838 36.0743 464.841 31.0463 461.494 26.6058C454.977 17.9549 444.739 15.9411 436.114 19.383C430.497 21.6255 426.781 25.9641 424.046 31.2043C420.616 37.7854 419.406 44.9045 419.225 52.2358C419.1 56.3191 419.386 60.4047 420.081 64.4305C420.991 69.5473 422.569 74.4272 425.354 78.8398C429.058 84.7035 434.036 88.8348 441.132 89.8253C446.088 90.5179 450.808 89.7545 455.109 87.0744C459.859 84.1129 463.006 79.7924 465.263 74.7743C468.253 68.1571 469.179 61.135 469.251 53.9781V53.9748Z" fill="white"/>
<path d="M444.229 47.8479H444.227C440.869 47.8479 438.146 50.5704 438.146 53.9288V53.9305C438.146 57.2889 440.869 60.0114 444.227 60.0114H444.229C447.587 60.0114 450.309 57.2889 450.309 53.9305V53.9288C450.309 50.5704 447.587 47.8479 444.229 47.8479Z" fill="white"/>
<path d="M230.566 56.089C230.544 49.3582 227.902 43.7133 222.91 39.2579C216.811 33.8137 209.623 32.1207 201.716 33.8992C195.923 35.2023 191.272 38.3299 188.225 43.5751C187.971 44.0111 187.731 44.452 187.437 44.9653C187.264 44.7086 187.153 44.5573 187.058 44.3977C185.613 41.9794 183.729 39.8519 181.504 38.1243C181.43 38.0618 181.351 37.9992 181.263 37.9351C180.77 37.5616 180.26 37.2079 179.735 36.8706C175.533 34.123 171.813 33.2362 167.797 33.2362C165.594 33.184 163.393 33.4084 161.245 33.9042C155.981 35.0904 151.645 37.7886 148.613 42.221H146.836V41.2338C146.836 39.3698 146.797 37.504 146.856 35.6399C146.881 34.8173 146.603 34.6034 145.826 34.6396C144.595 34.6988 143.358 34.6922 142.126 34.6396C141.392 34.61 141.139 34.8041 141.139 35.5971C141.173 41.2733 141.157 46.9495 141.157 52.624C141.157 67.2373 141.151 81.8512 141.14 96.4656C141.14 97.229 141.356 97.4527 142.108 97.4346C144.355 97.3902 146.604 97.4198 148.853 97.4181C150.016 97.4181 150.016 97.4182 150.016 96.2434C150.016 84.2626 150.02 72.2812 150.026 60.2992C150.022 59.0125 150.097 57.7268 150.25 56.4493C151.155 49.1854 156.413 42.4546 165.092 42.1667C165.834 42.1418 166.578 42.1594 167.318 42.2194C167.483 42.2342 167.636 42.2473 167.794 42.2671C172.058 42.736 175.576 44.7449 178.234 48.5191C180.615 51.9051 181.407 55.7583 181.413 59.804C181.436 72.0053 181.436 84.2061 181.413 96.4063C181.413 97.196 181.639 97.4478 182.433 97.4313C184.681 97.3852 186.928 97.4165 189.179 97.4149C190.278 97.4149 190.278 97.4149 190.278 96.278C190.278 84.2955 190.263 72.3146 190.298 60.3338C190.31 58.7461 190.45 57.1619 190.719 55.597C191.951 48.2065 197.55 42.4036 205.551 42.1519C210.312 42.0022 214.381 43.5454 217.535 47.1914C220.511 50.6316 221.683 54.7382 221.693 59.2018C221.721 71.5414 221.703 83.8809 221.703 96.2204C221.703 97.4198 221.703 97.4214 222.933 97.4214C225.098 97.4214 227.264 97.4214 229.43 97.4214C230.582 97.4214 230.582 97.4214 230.582 96.2385C230.579 82.8493 230.61 69.4683 230.566 56.089Z" fill="white"/>
<path d="M399.355 56.089C399.334 49.3582 396.692 43.7133 391.7 39.2579C385.601 33.8137 378.413 32.1207 370.506 33.8992C364.713 35.2023 360.061 38.3299 357.014 43.5751C356.761 44.0111 356.521 44.452 356.226 44.9653C356.054 44.7086 355.943 44.5573 355.848 44.3977C354.404 41.9804 352.522 39.8535 350.298 38.1259C350.224 38.0634 350.145 38.0009 350.058 37.9367C349.565 37.5632 349.055 37.2095 348.53 36.8722C344.328 34.1246 340.608 33.2378 336.592 33.2378C334.389 33.1857 332.188 33.4101 330.04 33.9058C324.767 35.092 320.44 37.7903 317.408 42.2226H315.631V41.2355C315.631 39.3714 315.592 37.5057 315.651 35.6416C315.675 34.8189 315.397 34.605 314.621 34.6412C313.39 34.7005 312.153 34.6939 310.921 34.6412C310.187 34.6116 309.933 34.8058 309.933 35.5988C309.968 41.275 309.952 46.9512 309.952 52.6257C309.952 67.239 309.946 81.8528 309.935 96.4672C309.935 97.2306 310.151 97.4544 310.903 97.4363C313.15 97.3918 315.399 97.4214 317.648 97.4198C318.81 97.4198 318.81 97.4198 318.81 96.2451C318.81 84.2642 318.813 72.2828 318.82 60.3009C318.815 59.0142 318.89 57.7284 319.043 56.4509C319.948 49.1871 325.206 42.4563 333.885 42.1683C334.628 42.1435 335.371 42.1611 336.111 42.221C336.276 42.2358 336.429 42.249 336.587 42.2687C340.851 42.7376 344.369 44.7465 347.028 48.5207C349.41 51.9067 350.2 55.7599 350.206 59.8056C350.229 72.007 350.229 84.2077 350.206 96.408C350.206 97.1977 350.433 97.4494 351.226 97.433C353.474 97.3869 355.723 97.4181 357.972 97.4165C359.071 97.4165 359.071 97.4165 359.073 96.2796C359.073 84.2971 359.056 72.3163 359.091 60.3354C359.103 58.7477 359.244 57.1637 359.512 55.5987C360.744 48.2081 366.343 42.4053 374.344 42.1535C379.105 42.0038 383.174 43.5471 386.328 47.193C389.305 50.6333 390.476 54.7399 390.486 59.2035C390.514 71.543 390.496 83.8825 390.496 96.2221C390.496 97.4215 390.496 97.4231 391.726 97.4231C393.892 97.4231 396.057 97.4231 398.224 97.4231C399.375 97.4231 399.375 97.4231 399.375 96.2401C399.369 82.8493 399.4 69.4683 399.355 56.089Z" fill="white"/>
</svg>
