<svg width="600" height="168" viewBox="0 0 600 168" fill="none" xmlns="http://www.w3.org/2000/svg">
<path d="M282.224 144.592V83.3429L266.72 67.8387H215.462V82.8824H260.119L266.873 89.6367V97.4656H226.361L210.856 112.97V129.088L226.361 144.592H282.224ZM266.873 129.549H232.961L226.207 122.794V119.264L232.961 112.509H266.873V129.549Z" fill="#271242"/>
<path d="M346.16 144.592V129.549H327.739V37.1372H293.967V52.1809H312.388V129.549H293.967V144.592H346.16Z" fill="#271242"/>
<path d="M416.286 144.592L431.79 129.088V83.3429L416.286 67.8387H373.773V37.1372H358.422V144.592H416.286ZM416.439 122.794L409.685 129.549H373.773V82.8824H409.685L416.439 89.6367V122.794Z" fill="#271242"/>
<path d="M517.298 144.592V67.8387H501.948V129.549H468.036L461.281 122.794V67.8387H445.931V129.088L461.435 144.592H517.298Z" fill="#271242"/>
<path d="M584.214 144.592L599.719 129.088V114.198L584.214 98.6936H550.605L544.004 92.0928V89.6367L550.759 82.8824H587.649V67.8387H544.158L528.654 83.3429V98.2331L544.158 113.737H577.767L584.368 120.338V122.794L577.614 129.549H532.781V144.592H584.214Z" fill="#271242"/>
<g clip-path="url(#clip0_3434_2)">
<rect x="0.28125" width="168" height="168" rx="13.5562" fill="#271242"/>
<path d="M71.4121 90.4251C71.5681 90.0036 72.1642 90.0036 72.3202 90.4251L75.1188 97.9881C75.1678 98.1206 75.2723 98.2251 75.4048 98.2742L82.9679 101.073C83.3894 101.229 83.3894 101.825 82.9679 101.981L75.4048 104.779C75.2723 104.828 75.1678 104.933 75.1188 105.065L72.3202 112.629C72.1642 113.05 71.5681 113.05 71.4121 112.629L68.6135 105.065C68.5645 104.933 68.46 104.828 68.3275 104.779L60.7644 101.981C60.3429 101.825 60.3429 101.229 60.7644 101.073L68.3275 98.2742C68.46 98.2251 68.5645 98.1206 68.6135 97.9881L71.4121 90.4251Z" fill="#EFC453"/>
<path d="M113.602 41.3222C113.758 40.9007 114.355 40.9007 114.511 41.3222L117.011 48.0794C117.06 48.2119 117.164 48.3164 117.297 48.3655L124.054 50.8659C124.476 51.0218 124.476 51.618 124.054 51.774L117.297 54.2744C117.164 54.3234 117.06 54.4279 117.011 54.5604L114.511 61.3176C114.355 61.7391 113.758 61.7391 113.602 61.3176L111.102 54.5604C111.053 54.4279 110.949 54.3234 110.816 54.2744L104.059 51.774C103.637 51.618 103.637 51.0218 104.059 50.8659L110.816 48.3655C110.949 48.3164 111.053 48.2119 111.102 48.0794L113.602 41.3222Z" fill="#EFC453"/>
<path d="M-9.26777 95.5488L70.4899 24.6455L71.6808 28.5745L-10.4301 122.152L-9.26777 95.5488Z" fill="#84E8F8"/>
<path d="M-0.468753 127L70.5313 34.0001L73.0313 39.25L-0.468753 145.75L-0.468753 127Z" fill="#84E8F8"/>
<path d="M-10.9033 121.889L71.4389 28.5639L73.4063 32.25L-11.8225 142.929L-10.9033 121.889Z" fill="#08B0F9"/>
<path d="M-1.96877 146.75L73.7813 37.8751L75.2812 41.9999L0.531236 165.25L-1.96877 146.75Z" fill="#08B0F9"/>
<path d="M150.15 197.025C145.993 198.79 141.777 198.388 140.787 196.165L66.4081 25.991C65.8922 24.8106 66.3262 23.4304 67.4248 22.7577L69.5652 21.4471C70.8595 20.6546 72.5548 21.145 73.2261 22.506L155.75 189.817C156.812 192.041 154.285 195.267 150.128 197.032L150.15 197.025Z" fill="#D2D2D2"/>
<path d="M93.2053 56.0363C92.4229 51.6275 88.0331 48.7199 83.4004 49.542C78.7677 50.3641 75.6464 54.6045 76.4287 59.0133C77.2111 63.4221 81.6008 66.3297 86.2335 65.5076C90.8663 64.6855 93.9876 60.445 93.2053 56.0363Z" fill="#BFBFBF"/>
<path d="M111.804 115.657C117.149 113.335 119.527 106.951 117.114 101.399C114.702 95.8457 108.413 93.2267 103.068 95.5488C97.7225 97.8709 95.3451 104.255 97.7576 109.808C100.17 115.361 106.459 117.98 111.804 115.657Z" fill="#BFBFBF"/>
<path d="M136.545 162.803C141.963 159.172 143.274 151.634 139.475 145.965C135.675 140.297 128.204 138.646 122.787 142.276C117.369 145.907 116.058 153.446 119.857 159.114C123.656 164.782 131.128 166.434 136.545 162.803Z" fill="#BFBFBF"/>
<path d="M84.1427 51.2807C84.1405 51.0037 84.3635 50.7754 84.6399 50.7933C85.4875 50.8482 86.3191 51.0598 87.0921 51.4187C88.017 51.8481 88.8348 52.4778 89.4865 53.2622C90.1381 54.0466 90.6072 54.966 90.8599 55.954C91.071 56.7797 91.1265 57.6359 91.0252 58.4792C90.9921 58.7543 90.7268 58.9316 90.4549 58.8786C90.183 58.8256 90.0078 58.5623 90.0375 58.2869C90.1124 57.5901 90.0623 56.8841 89.888 56.2025C89.6722 55.3586 89.2715 54.5732 88.7149 53.9032C88.1582 53.2332 87.4596 52.6954 86.6696 52.3285C86.0315 52.0323 85.3467 51.8535 84.6479 51.7995C84.3718 51.7782 84.145 51.5577 84.1427 51.2807Z" fill="#E6E6E6"/>
<path d="M106.993 98.289C106.99 97.9498 107.263 97.6702 107.601 97.6922C108.639 97.7595 109.658 98.0185 110.604 98.458C111.737 98.9839 112.738 99.755 113.536 100.716C114.334 101.676 114.909 102.802 115.218 104.012C115.477 105.023 115.545 106.071 115.421 107.104C115.38 107.441 115.055 107.658 114.722 107.593C114.389 107.528 114.175 107.206 114.211 106.869C114.303 106.015 114.242 105.151 114.028 104.316C113.764 103.283 113.273 102.321 112.592 101.501C111.91 100.68 111.054 100.021 110.087 99.5722C109.306 99.2094 108.467 98.9905 107.611 98.9244C107.273 98.8982 106.995 98.6282 106.993 98.289Z" fill="#E6E6E6"/>
<path d="M128.501 143.507C128.498 143.087 128.836 142.741 129.255 142.768C130.882 142.874 132.465 143.359 133.876 144.191C135.506 145.151 136.844 146.536 137.747 148.198C138.649 149.86 139.084 151.736 139.002 153.626C138.932 155.261 138.478 156.854 137.681 158.276C137.476 158.643 137.001 158.738 136.651 158.507C136.3 158.275 136.207 157.805 136.408 157.436C137.055 156.246 137.424 154.921 137.483 153.56C137.552 151.946 137.181 150.344 136.41 148.924C135.639 147.504 134.496 146.321 133.104 145.501C131.931 144.81 130.618 144.398 129.268 144.294C128.849 144.262 128.505 143.927 128.501 143.507Z" fill="#E6E6E6"/>
</g>
<defs>
<clipPath id="clip0_3434_2">
<rect x="0.28125" width="168" height="168" rx="13.5562" fill="white"/>
</clipPath>
</defs>
</svg>
