<svg width="747" height="458" viewBox="0 0 747 458" xmlns="http://www.w3.org/2000/svg" xmlns:xlink="http://www.w3.org/1999/xlink" overflow="hidden"><defs><clipPath id="clip0"><rect x="591" y="770" width="747" height="458"/></clipPath></defs><g clip-path="url(#clip0)" transform="translate(-591 -770)"><path d="M731.5 997C731.5 872.46 835.818 771.5 964.5 771.5 1093.18 771.5 1197.5 872.46 1197.5 997 1197.5 1121.54 1093.18 1222.5 964.5 1222.5 835.818 1222.5 731.5 1121.54 731.5 997Z" stroke="#767171" stroke-width="3.4375" stroke-linecap="butt" stroke-linejoin="miter" stroke-miterlimit="8" stroke-opacity="1" fill="none" fill-rule="evenodd"/><path d="M964 865.5 1330.5 986.5 964 1107.5 597.5 986.5Z" fill="#FFFFFF" fill-rule="evenodd" fill-opacity="1"/><path d="M964 865.5 964 1107.5" stroke="#404040" stroke-width="3.4375" stroke-linecap="butt" stroke-linejoin="miter" stroke-miterlimit="8" stroke-opacity="1" fill="none" fill-rule="evenodd"/><path d="M964 865.5 1330.5 986.5 964 1107.5 597.5 986.5Z" stroke="#404040" stroke-width="3.4375" stroke-linecap="butt" stroke-linejoin="miter" stroke-miterlimit="8" stroke-opacity="1" fill="none" fill-rule="evenodd"/><path d="M964 867 964 1105 602 986Z" fill="#D0CECE" fill-rule="evenodd" fill-opacity="1"/><path d="M873.5 986.5C873.5 939.004 913.123 900.5 962 900.5 1010.88 900.5 1050.5 939.004 1050.5 986.5 1050.5 1034 1010.88 1072.5 962 1072.5 913.123 1072.5 873.5 1034 873.5 986.5Z" stroke="#404040" stroke-width="3.4375" stroke-linecap="butt" stroke-linejoin="miter" stroke-miterlimit="8" stroke-opacity="1" fill="none" fill-rule="evenodd"/></g></svg>