<svg width="556" height="557" viewBox="0 0 556 557" xmlns="http://www.w3.org/2000/svg" xmlns:xlink="http://www.w3.org/1999/xlink" overflow="hidden"><defs><clipPath id="clip0"><rect x="68" y="81" width="556" height="557"/></clipPath><clipPath id="clip1"><rect x="68" y="82" width="555" height="556"/></clipPath><clipPath id="clip2"><rect x="68" y="82" width="555" height="556"/></clipPath><clipPath id="clip3"><rect x="68" y="82" width="555" height="556"/></clipPath></defs><g clip-path="url(#clip0)" transform="translate(-68 -81)"><g clip-path="url(#clip1)"><g clip-path="url(#clip2)"><g clip-path="url(#clip3)"><path d="M185 184.347 185 112.867C185 88.8439 204.475 69.3692 228.498 69.3692 252.522 69.3692 271.996 88.8439 271.996 112.867L271.996 184.168C311.523 160.063 324.025 108.479 299.92 68.9524 275.815 29.4254 224.232 16.9235 184.705 41.0284 145.178 65.1333 132.676 116.717 156.781 156.243 163.793 167.742 173.473 177.382 185 184.347Z" stroke="#000000" stroke-width="8" stroke-linecap="butt" stroke-linejoin="miter" stroke-miterlimit="4" stroke-opacity="1" fill="#FFFFFF" fill-rule="nonzero" fill-opacity="1" transform="matrix(1 0 0 1.0018 68 82)"/><path d="M202.344 112.873 202.344 359.68 202.28 359.68 180.82 263.047C177.513 248.986 163.433 240.269 149.372 243.576 135.558 246.825 126.855 260.499 129.76 274.39L161.147 415.62C162.481 421.599 165.874 426.919 170.732 430.651L228.544 475.109 228.544 514.531 380.21 514.531 380.21 488.377C380.21 451.325 422.054 448.486 422.054 378.533L422.054 284.38C422.072 267.068 408.052 253.019 390.74 253.002 382.921 252.994 375.382 255.909 369.601 261.174 369.688 260.202 369.746 259.225 369.746 258.231 369.757 240.91 355.723 226.859 338.402 226.848 330.29 226.844 322.492 229.981 316.645 235.603 312.833 218.704 296.042 208.094 279.142 211.906 264.823 215.136 254.659 227.863 254.676 242.541L254.676 112.873C254.676 98.4287 242.966 86.7188 228.521 86.7188 214.077 86.7188 202.367 98.4287 202.367 112.873Z" stroke="#000000" stroke-width="8" stroke-linecap="butt" stroke-linejoin="miter" stroke-miterlimit="4" stroke-opacity="1" fill="#FFFFFF" fill-rule="nonzero" fill-opacity="1" transform="matrix(1 0 0 1.0018 68 82)"/></g></g></g></g></svg>
