<svg width="132" height="132" xmlns="http://www.w3.org/2000/svg" xmlns:xlink="http://www.w3.org/1999/xlink" xml:space="preserve" overflow="hidden"><g transform="translate(-670 -341)"><g><g><g><g><path d="M783.987 395.219C782.896 395.219 781.941 395.355 780.849 395.628L777.847 386.485C786.171 382.119 789.446 371.884 785.079 363.56 780.713 355.236 770.478 351.961 762.154 356.328 757.651 358.648 754.376 363.015 753.284 367.927L741.276 366.835C741.14 360.558 736.091 355.646 729.814 355.782 723.536 355.919 718.624 360.968 718.76 367.245 718.76 369.565 719.579 371.748 720.807 373.658L705.797 388.532C698.701 382.392 687.921 383.074 681.78 390.17 675.64 397.266 676.185 408.046 683.281 414.186 686.42 416.916 690.377 418.417 694.471 418.417 694.88 418.417 695.29 418.417 695.699 418.417L699.383 438.067C693.379 439.841 690.104 446.118 691.878 452.122 693.652 458.126 699.929 461.401 705.933 459.627 711.938 457.853 715.213 451.576 713.439 445.572 713.166 444.89 712.893 444.207 712.62 443.525L724.765 437.384C731.451 446.527 744.278 448.438 753.284 441.751 760.244 436.566 763.246 427.696 760.79 419.372L774.026 412.14C777.165 417.461 783.987 419.372 789.446 416.233 794.768 413.095 796.678 406.272 793.54 400.814 791.629 397.402 787.945 395.219 783.987 395.219ZM761.608 383.074C762.018 378.571 766.111 375.159 770.615 375.569 774.572 375.978 777.71 379.117 778.12 383.074 773.207 386.485 766.657 386.485 761.608 383.074ZM766.111 369.019C766.111 366.972 767.749 365.198 769.932 365.198 772.116 365.198 773.753 366.835 773.753 369.019 773.753 371.066 772.116 372.84 769.932 372.84 767.885 372.84 766.111 371.066 766.111 369.019ZM769.932 357.01C777.847 357.01 784.26 363.424 784.26 371.339 784.26 374.886 782.896 378.298 780.576 381.027 779.757 377.889 777.438 375.159 774.435 373.795 777.028 371.339 777.165 367.245 774.708 364.516 772.252 361.923 768.158 361.786 765.429 364.243 762.7 366.699 762.7 370.793 765.156 373.522 765.293 373.658 765.429 373.795 765.429 373.795 762.427 375.159 760.107 377.752 759.289 381.027 753.967 375.159 754.376 366.153 760.244 360.831 762.973 358.375 766.384 357.01 769.932 357.01ZM760.79 385.803 749.736 406.681C740.048 402.178 728.722 405.862 723.536 415.142L710.3 407.909C712.756 402.042 711.665 395.355 707.707 390.443L722.718 375.432C727.357 379.526 734.453 378.98 738.547 374.204 739.775 372.84 740.594 371.202 741.003 369.428L753.011 370.52C753.011 370.793 753.011 371.066 753.011 371.339 752.875 377.206 755.877 382.665 760.79 385.803ZM728.176 365.471C728.176 364.379 728.995 363.56 730.086 363.56 731.178 363.56 731.997 364.379 731.997 365.471 731.997 366.562 731.178 367.381 730.086 367.381 730.086 367.381 730.086 367.381 730.086 367.381 728.995 367.245 728.176 366.426 728.176 365.471ZM730.086 369.974C732.406 369.974 734.317 371.611 734.726 373.931 731.86 375.842 728.312 375.842 725.447 373.931 725.72 371.748 727.63 370.11 730.086 369.974ZM730.086 358.375C734.726 358.375 738.547 362.196 738.683 366.835 738.683 368.609 738.138 370.383 737.046 371.884 736.364 370.383 735.272 369.019 733.771 368.2 734.453 367.381 734.726 366.426 734.726 365.334 734.726 362.742 732.679 360.695 730.086 360.695 727.494 360.695 725.447 362.742 725.447 365.334 725.447 366.426 725.856 367.381 726.402 368.2 724.901 369.019 723.809 370.247 723.127 371.884 720.398 368.064 721.217 362.742 724.901 360.013 726.402 358.921 728.176 358.375 730.086 358.375ZM680.279 401.359C680.279 393.445 686.693 387.031 694.607 387.031 702.522 387.031 708.935 393.445 708.935 401.359 708.935 404.907 707.571 408.319 705.251 411.048 704.432 407.909 702.112 405.18 699.11 403.816 701.703 401.359 701.84 397.266 699.383 394.536 696.927 391.807 692.833 391.807 690.104 394.264 687.511 396.72 687.375 400.814 689.831 403.543 689.968 403.679 690.104 403.816 690.104 403.816 687.102 405.18 684.782 407.773 683.964 411.048 681.507 408.319 680.279 404.907 680.279 401.359ZM690.786 399.04C690.786 396.993 692.424 395.219 694.607 395.219 696.791 395.219 698.428 396.856 698.428 399.04 698.428 401.086 696.791 402.86 694.607 402.86 692.424 402.86 690.786 401.086 690.786 399.04ZM686.283 413.095C686.693 408.592 690.786 405.18 695.29 405.59 699.247 405.999 702.385 409.138 702.795 413.095 697.882 416.506 691.196 416.506 686.283 413.095ZM698.019 455.943C698.428 453.35 700.748 451.576 703.341 451.985 705.388 452.258 707.025 453.896 707.298 455.943 704.569 457.717 700.884 457.717 698.019 455.943ZM700.884 447.346C700.884 446.254 701.703 445.435 702.795 445.435 703.886 445.435 704.705 446.254 704.705 447.346 704.705 448.438 703.886 449.256 702.795 449.256 701.703 449.12 700.884 448.301 700.884 447.346ZM709.618 453.759C708.935 452.258 707.844 450.894 706.343 450.075 707.025 449.256 707.298 448.301 707.298 447.209 707.298 444.617 705.251 442.57 702.658 442.57 700.066 442.57 698.019 444.617 698.019 447.209 698.019 448.301 698.428 449.256 698.974 450.075 697.473 450.894 696.381 452.122 695.699 453.759 692.97 449.939 693.789 444.617 697.609 441.888 701.43 439.158 706.752 439.977 709.481 443.798 711.801 446.664 711.801 450.757 709.618 453.759ZM710.982 441.205C708.935 438.885 705.933 437.521 702.795 437.521 702.658 437.521 702.385 437.521 702.249 437.521L698.565 417.871C702.931 416.779 706.752 414.05 709.072 410.229L722.308 417.461C719.989 423.193 720.398 429.606 723.264 434.928L710.982 441.205ZM730.905 439.568C731.315 433.836 736.364 429.606 742.095 430.016 747.144 430.425 751.237 434.519 751.647 439.568 745.506 444.071 737.046 444.071 730.905 439.568ZM736.364 422.374C736.364 419.645 738.547 417.461 741.276 417.461 744.005 417.461 746.189 419.645 746.189 422.374 746.189 425.103 744.005 427.286 741.276 427.286 741.276 427.286 741.276 427.286 741.276 427.286 738.547 427.286 736.364 425.103 736.364 422.374ZM754.103 437.521C753.148 433.291 750.146 429.879 746.189 428.242 749.464 425.513 749.873 420.736 747.144 417.461 744.415 414.186 739.639 413.777 736.364 416.506 733.089 419.235 732.679 424.011 735.408 427.286 735.681 427.696 736.091 427.969 736.364 428.242 732.406 429.879 729.404 433.291 728.449 437.521 721.626 430.425 721.899 419.235 728.995 412.413 736.091 405.59 747.28 405.862 754.103 412.958 760.653 419.781 760.653 430.698 754.103 437.521ZM759.834 416.779C758.197 413.095 755.468 410.093 752.193 407.909L763.246 387.031C767.067 388.669 771.297 388.805 775.254 387.577L778.256 396.72C773.753 399.312 771.57 404.634 773.071 409.547L759.834 416.779ZM779.211 413.641C779.621 411.048 781.941 409.274 784.533 409.683 786.58 409.956 788.218 411.594 788.491 413.641 785.761 415.415 782.077 415.415 779.211 413.641ZM782.077 405.044C782.077 403.952 782.896 403.133 783.987 403.133 785.079 403.133 785.898 403.952 785.898 405.044 785.898 406.135 785.079 406.954 783.987 406.954 783.987 406.954 783.987 406.954 783.987 406.954 782.896 406.818 782.077 405.999 782.077 405.044ZM790.81 411.457C790.128 409.956 789.036 408.592 787.535 407.773 788.218 406.954 788.491 405.999 788.491 404.907 788.491 402.315 786.444 400.268 783.851 400.268 781.258 400.268 779.211 402.315 779.211 404.907 779.211 405.999 779.621 406.954 780.167 407.773 778.666 408.592 777.574 409.82 776.892 411.457 774.162 407.636 774.981 402.315 778.802 399.585 782.623 396.856 787.945 397.675 790.674 401.496 792.994 404.361 792.994 408.455 790.81 411.457 790.81 411.457 790.81 411.457 790.81 411.457Z" stroke="#FFFFFF" stroke-width="1.36454" stroke-linecap="butt" stroke-linejoin="miter" stroke-miterlimit="4" stroke-opacity="1" fill="#000000" fill-rule="nonzero" fill-opacity="1"/></g></g></g></g></g></svg>
