<svg width="1050" height="1018" viewBox="0 0 1050 1018" xmlns="http://www.w3.org/2000/svg" xmlns:xlink="http://www.w3.org/1999/xlink" overflow="hidden"><defs><clipPath id="clip0"><rect x="1732" y="462" width="1050" height="1018"/></clipPath></defs><g clip-path="url(#clip0)" transform="translate(-1732 -462)"><path d="M2625.69 1327.29 2384 975" stroke="#767171" stroke-width="10.3125" stroke-linecap="butt" stroke-linejoin="miter" stroke-miterlimit="8" stroke-opacity="1" fill="none" fill-rule="evenodd"/><path d="M1742 973C1742 695.753 1973.69 471 2259.5 471 2545.31 471 2777 695.753 2777 973 2777 1250.25 2545.31 1475 2259.5 1475 1973.69 1475 1742 1250.25 1742 973Z" stroke="#767171" stroke-width="10.3125" stroke-linecap="butt" stroke-linejoin="miter" stroke-miterlimit="8" stroke-opacity="1" fill="none" fill-rule="evenodd"/><path d="M2027 781.5C2027 656.96 2131.32 556 2260 556 2388.68 556 2493 656.96 2493 781.5 2493 906.04 2388.68 1007 2260 1007 2131.32 1007 2027 906.04 2027 781.5Z" stroke="#767171" stroke-width="10.3125" stroke-linecap="butt" stroke-linejoin="miter" stroke-miterlimit="8" stroke-opacity="1" fill="none" fill-rule="evenodd"/><path d="M0 0 248.988 341.047" stroke="#767171" stroke-width="10.3125" stroke-linecap="butt" stroke-linejoin="miter" stroke-miterlimit="8" stroke-opacity="1" fill="none" fill-rule="evenodd" transform="matrix(1 0 0 -1 1893 1328.05)"/><path d="M0 0 101.611 0.379659" stroke="#767171" stroke-width="10.3125" stroke-linecap="butt" stroke-linejoin="miter" stroke-miterlimit="8" stroke-opacity="1" fill="none" fill-rule="evenodd" transform="matrix(1 0 0 -1 1792 771.38)"/><path d="M2626 771 2730.12 771.379" stroke="#767171" stroke-width="10.3125" stroke-linecap="butt" stroke-linejoin="miter" stroke-miterlimit="8" stroke-opacity="1" fill="none" fill-rule="evenodd"/><path d="M2259.5 650 2626 771 2259.5 892 1893 771Z" fill="#FFFFFF" fill-rule="evenodd" fill-opacity="1"/><path d="M2259.5 650 2259.5 892" stroke="#404040" stroke-width="10.3125" stroke-linecap="butt" stroke-linejoin="miter" stroke-miterlimit="8" stroke-opacity="1" fill="none" fill-rule="evenodd"/><path d="M2259.5 650 2626 771 2259.5 892 1893 771Z" stroke="#404040" stroke-width="10.3125" stroke-linecap="butt" stroke-linejoin="miter" stroke-miterlimit="8" stroke-opacity="1" fill="none" fill-rule="evenodd"/><path d="M2255 658 2255 883 1914 770.5Z" fill="#D0CECE" fill-rule="evenodd" fill-opacity="1"/><path d="M2168 771C2168 723.504 2207.85 685 2257 685 2306.15 685 2346 723.504 2346 771 2346 818.497 2306.15 857 2257 857 2207.85 857 2168 818.497 2168 771Z" stroke="#404040" stroke-width="10.3125" stroke-linecap="butt" stroke-linejoin="miter" stroke-miterlimit="8" stroke-opacity="1" fill="none" fill-rule="evenodd"/></g></svg>