<svg width="557" height="557" viewBox="0 0 557 557" xmlns="http://www.w3.org/2000/svg" xmlns:xlink="http://www.w3.org/1999/xlink" overflow="hidden"><defs><clipPath id="clip0"><rect x="160" y="92" width="557" height="557"/></clipPath><clipPath id="clip1"><rect x="161" y="93" width="556" height="556"/></clipPath><clipPath id="clip2"><rect x="161" y="93" width="556" height="556"/></clipPath><clipPath id="clip3"><rect x="161" y="93" width="556" height="556"/></clipPath></defs><g clip-path="url(#clip0)" transform="translate(-160 -92)"><g clip-path="url(#clip1)"><g clip-path="url(#clip2)"><g clip-path="url(#clip3)"><path d="M504.446 309.029C480.121 309.029 461.008 289.337 461.008 265.592 461.008 241.846 480.7 222.154 504.446 222.154 528.771 222.154 547.883 241.846 547.883 265.592 547.883 289.337 528.192 309.029 504.446 309.029ZM602.325 238.371C600.008 230.262 597.112 222.733 593.058 215.783L602.325 188.562 581.475 167.712 554.254 176.979C547.304 172.925 539.775 170.029 531.667 167.712L518.925 142.229 489.967 142.229 477.225 167.712C469.117 170.029 461.587 172.925 454.637 176.979L427.417 167.712 406.567 188.562 415.833 215.783C411.779 222.733 408.883 230.262 406.567 238.371L381.083 251.112 381.083 280.071 406.567 292.812C408.883 300.921 411.779 308.45 415.833 315.4L406.567 342.621 426.837 362.892 454.058 353.625C461.008 357.679 468.537 360.575 476.646 362.892L489.387 388.375 518.346 388.375 531.088 362.892C539.196 360.575 546.725 357.679 553.675 353.625L580.896 362.892 601.746 342.621 592.479 315.4C596.533 308.45 600.008 300.342 602.325 292.812L627.808 280.071 627.808 251.112 602.325 238.371Z" stroke="#000000" stroke-width="8.01441" stroke-linecap="butt" stroke-linejoin="miter" stroke-miterlimit="4" stroke-opacity="1" fill="#FFFFFF" fill-rule="nonzero" fill-opacity="1"/><path d="M373.554 519.846C349.229 519.846 330.117 500.154 330.117 476.408 330.117 452.083 349.808 432.971 373.554 432.971 397.879 432.971 416.992 452.662 416.992 476.408 416.992 500.154 397.879 519.846 373.554 519.846L373.554 519.846ZM462.167 426.6 471.433 399.379 450.583 378.529 423.362 387.796C416.412 383.742 408.304 380.846 400.775 378.529L388.033 353.046 359.075 353.046 346.333 378.529C338.225 380.846 330.696 383.742 323.746 387.796L296.525 378.529 276.254 398.8 284.942 426.021C280.888 432.971 277.992 441.079 275.675 448.608L250.192 461.35 250.192 490.308 275.675 503.05C277.992 511.158 280.888 518.688 284.942 525.637L276.254 552.858 296.525 573.129 323.746 564.442C330.696 568.496 338.225 571.392 346.333 573.708L359.075 599.192 388.033 599.192 400.775 573.708C408.883 571.392 416.412 568.496 423.362 564.442L450.583 573.708 470.854 552.858 462.167 526.217C466.221 519.267 469.117 511.738 471.433 503.629L496.917 490.887 496.917 461.929 471.433 449.188C469.117 441.079 466.221 433.55 462.167 426.6Z" stroke="#000000" stroke-width="8.01441" stroke-linecap="butt" stroke-linejoin="miter" stroke-miterlimit="4" stroke-opacity="1" fill="#FFFFFF" fill-rule="nonzero" fill-opacity="1"/></g></g></g></g></svg>
