<?xml version="1.0" encoding="utf-8"?>
<!-- Generator: Adobe Illustrator 26.0.2, SVG Export Plug-In . SVG Version: 6.00 Build 0)  -->
<svg version="1.1" id="Layer_1" xmlns="http://www.w3.org/2000/svg" xmlns:xlink="http://www.w3.org/1999/xlink" x="0px" y="0px"
	 viewBox="0 0 348.1 450.7" style="enable-background:new 0 0 348.1 450.7;" xml:space="preserve">
<style type="text/css">
	.st0{fill:#FE9807;}
	.st1{fill:#505D66;}
</style>
<g id="Layer_2_00000027592924314629136480000002286563024165190831_">
	<g id="图层_1">
		<path class="st0" d="M298,76.7L173.8,0.2c-0.7-0.5-1.7-0.3-2.2,0.5c-0.4,0.6-0.3,1.3,0.1,1.9L211.6,51
			c-11.2,0.6-22.3,1.9-33.4,3.9c-11.9,2.2-23.6,5.2-35,9c-11.3,3.8-22.4,8.5-33,13.9c-10.6,5.5-20.8,11.7-30.5,18.8
			c-10.4,7.6-20.1,16.1-29,25.5c-8.6,9.1-16.3,19.1-23,29.7c-6.6,10.6-12.1,21.8-16.3,33.5C7,197.2,4,209.6,2.4,222.1L0,241
			c-0.1,0.9,0.5,1.7,1.4,1.8c0.4,0,0.7,0,1-0.2l78.9-47.9c0.3-0.2,0.6-0.5,0.7-0.9l1-3.2c5.7-17.5,14.7-33.7,26.4-47.9
			c11.8-14.2,25.8-26.3,41.5-36c16.2-10,33.8-17.7,52.2-22.7c19.3-5.3,39.3-7.8,59.3-7.6c2.9,0,5.8,0.1,8.6,0.3s5.8,0.3,8.6,0.6
			s5.8,0.6,8.6,0.9s5.7,0.8,8.5,1.2c0.8,0.2,1.7-0.3,1.9-1.2C298.9,77.8,298.6,77.1,298,76.7z"/>
		<path class="st0" d="M347.8,177.8l-1-18.1c0-0.9-0.8-1.5-1.7-1.5c-0.3,0-0.6,0.1-0.8,0.3l-71.2,47.1c-0.3,0.2-0.6,0.6-0.7,1
			l-0.7,3.3c-4,18.8-11.6,36.5-22.6,52.3c-11.6,16.7-26,31.3-42.6,43c-17.8,12.7-37.5,22.4-58.3,28.9c-22.1,6.9-45.1,10.3-68.3,9.9
			c-3.3,0-6.6-0.2-9.9-0.4s-6.6-0.5-9.8-0.8s-6.5-0.8-9.7-1.2s-6.4-1-9.6-1.7c-0.8-0.2-1.7,0.4-1.9,1.2c-0.1,0.6,0.1,1.2,0.6,1.5
			l131.4,107.6c0.3,0.2,0.6,0.4,1,0.4c0.9,0,1.6-0.7,1.6-1.6c0-0.3-0.1-0.5-0.2-0.7l-36.9-70.5c13.6-0.8,27.2-2.6,40.6-5.5
			c13.8-3,27.4-7.1,40.5-12.4c12.8-5.1,25.2-11.3,36.9-18.6c11.5-7.1,22.3-15.2,32.3-24.2c10.5-9.4,19.9-20,28.2-31.4
			c7.8-10.7,14.3-22.3,19.6-34.4c5-11.7,8.7-23.9,10.9-36.3C347.8,202.7,348.5,190.3,347.8,177.8z"/>
		<path class="st1" d="M258.6,209.8l-61.7-28.5l61.4-95.5c0.5-0.8,0.3-1.8-0.5-2.2c-0.5-0.3-1.2-0.3-1.7,0l-154.8,96.3
			c-0.8,0.5-1,1.5-0.5,2.2c0.2,0.3,0.4,0.5,0.7,0.6l60.3,29.1l-90.3,122c-0.5,0.6-0.4,1.5,0.1,2.1c0.5,0.6,1.4,0.7,2.1,0.2
			l185.2-123.5c0.8-0.5,1-1.5,0.5-2.3C259.1,210.1,258.8,209.9,258.6,209.8L258.6,209.8z"/>
	</g>
</g>
</svg>
