<svg width="1085" height="1014" xmlns="http://www.w3.org/2000/svg" xmlns:xlink="http://www.w3.org/1999/xlink" overflow="hidden"><defs><clipPath id="clip0"><rect x="2788" y="393" width="1085" height="1014"/></clipPath><clipPath id="clip1"><rect x="3529" y="767" width="345" height="405"/></clipPath><clipPath id="clip2"><rect x="3529" y="767" width="345" height="405"/></clipPath><clipPath id="clip3"><rect x="3529" y="767" width="345" height="405"/></clipPath><clipPath id="clip4"><rect x="2788" y="767" width="344" height="405"/></clipPath><clipPath id="clip5"><rect x="2788" y="767" width="344" height="405"/></clipPath><clipPath id="clip6"><rect x="2788" y="767" width="344" height="405"/></clipPath></defs><g clip-path="url(#clip0)" transform="translate(-2788 -393)"><path d="M2796 895C2796 617.753 3027.92 393 3314 393 3600.08 393 3832 617.753 3832 895 3832 1172.25 3600.08 1397 3314 1397 3027.92 1397 2796 1172.25 2796 895Z" fill="#FFFFFF" fill-rule="evenodd"/><path d="M3678.58 1259.53C3475.89 1455.39 3147.92 1454.78 2946.01 1258.16 2945.69 1257.84 2945.36 1257.52 2945.04 1257.21L3313 903.513Z" fill="#203864" fill-rule="evenodd"/><path d="M3082 703.5C3082 578.96 3186.32 478 3315 478 3443.68 478 3548 578.96 3548 703.5 3548 828.04 3443.68 929 3315 929 3186.32 929 3082 828.04 3082 703.5Z" fill="#203864" fill-rule="evenodd"/><path d="M3314 572 3680 693 3314 814 2948 693Z" fill="#8FAADC" fill-rule="evenodd"/><path d="M3313 588 3313 803 2969 695.5Z" fill="#2F5597" fill-rule="evenodd"/><g clip-path="url(#clip1)"><g clip-path="url(#clip2)"><g clip-path="url(#clip3)"><path d="M121.479 317.99 160.781 185.792 100.042 185.792 130.126 25.8679 220.02 25.8679 182.219 142.917 242.958 142.917 121.479 317.99Z" stroke="#FFC000" stroke-width="30.87" fill="#FFC000" transform="matrix(1 0 0 1.17493 3530 768)"/></g></g></g><g clip-path="url(#clip4)"><g clip-path="url(#clip5)"><g clip-path="url(#clip6)"><path d="M121.833 318.916 161.25 186.333 100.333 186.333 130.505 25.9433 220.662 25.9433 182.75 143.333 243.666 143.333 121.833 318.916Z" stroke="#FFC000" stroke-width="30.96" fill="#FFC000" transform="matrix(1 0 0 1.17151 2788 768)"/></g></g></g></g></svg>