<svg id="Layer_1" data-name="Layer 1" xmlns="http://www.w3.org/2000/svg" viewBox="0 0 1138.16 450.71"><defs><style>.cls-1{fill:#ff9406;}.cls-2{fill:#505d66;}</style></defs><g id="Layer_2" data-name="Layer 2"><g id="图层_1" data-name="图层 1"><path class="cls-1" d="M298,76.7,173.81.24a1.58,1.58,0,0,0-2.06,2.35L211.55,51a263.57,263.57,0,0,0-33.37,3.9,252.77,252.77,0,0,0-35,9,240.65,240.65,0,0,0-33,13.92,228.41,228.41,0,0,0-30.5,18.8,211.86,211.86,0,0,0-29,25.52,191.34,191.34,0,0,0-23,29.72,176.8,176.8,0,0,0-16.34,33.49,172.22,172.22,0,0,0-8.9,36.76L0,241a1.58,1.58,0,0,0,1.37,1.77,1.6,1.6,0,0,0,1-.22l79-47.9a1.55,1.55,0,0,0,.69-.86l1-3.16a145,145,0,0,1,26.41-47.86,170.28,170.28,0,0,1,41.5-36A196.9,196.9,0,0,1,203.12,84.1a214.83,214.83,0,0,1,59.32-7.55c2.86,0,5.77.12,8.63.27s5.76.34,8.62.6,5.75.57,8.6.93,5.71.78,8.54,1.25a1.58,1.58,0,0,0,1.91-1.16A1.59,1.59,0,0,0,298,76.7Z" transform="translate(0.01 0.01)"/><path class="cls-1" d="M347.83,177.83l-1-18.05a1.57,1.57,0,0,0-1.65-1.48,1.49,1.49,0,0,0-.79.26l-71.16,47.15a1.55,1.55,0,0,0-.67,1L271.9,210a143.76,143.76,0,0,1-22.58,52.27,174.42,174.42,0,0,1-42.61,43,205,205,0,0,1-58.31,28.88,217.42,217.42,0,0,1-68.28,9.93c-3.3-.05-6.63-.17-9.89-.36s-6.58-.47-9.83-.8-6.51-.76-9.73-1.24-6.42-1.05-9.6-1.68a1.57,1.57,0,0,0-1.3,2.76L171.15,450.34a1.57,1.57,0,0,0,2.39-1.94l-36.87-70.52a264,264,0,0,0,40.57-5.5A251.22,251.22,0,0,0,217.75,360a238,238,0,0,0,36.9-18.61,224.15,224.15,0,0,0,32.27-24.25,201.9,201.9,0,0,0,28.2-31.37,179.69,179.69,0,0,0,19.59-34.43A167,167,0,0,0,345.6,215,161.86,161.86,0,0,0,347.83,177.83Z" transform="translate(0.01 0.01)"/><path class="cls-2" d="M258.56,209.79,196.9,181.24l61.42-95.48a1.63,1.63,0,0,0-2.23-2.26L101.25,179.84a1.63,1.63,0,0,0-.52,2.25,1.56,1.56,0,0,0,.67.6l60.26,29.12-90.33,122a1.62,1.62,0,0,0,.13,2.09,1.6,1.6,0,0,0,2.08.23l185.24-123.5a1.63,1.63,0,0,0,.46-2.26,1.67,1.67,0,0,0-.68-.58Z" transform="translate(0.01 0.01)"/><path class="cls-2" d="M451.86,199a36.63,36.63,0,0,0-12.3,10.44,32.45,32.45,0,0,0-6.35,14.49l-4.09,24.49h104.4l-4,24H425.12l-8.88,53.25H380.3l3-17.79,14-84a60.11,60.11,0,0,1,11.49-26.51,67.08,67.08,0,0,1,22.41-19.21,58.25,58.25,0,0,1,27.69-7.07H546.4l-4,24H466.76A31.6,31.6,0,0,0,451.86,199Z" transform="translate(0.01 0.01)"/><path class="cls-2" d="M772.68,325.65,742.8,208.39l-46.3,78,60.5,2.68L637.67,325.65,729,171.09h39.76l39.83,154.56Z" transform="translate(0.01 0.01)"/><path class="cls-2" d="M643.32,301.39H597.81q-11.91,0-18.91-8.43t-5-20.33l16.93-101.54H554.61L537.69,272.63q-2.4,14.39,2.65,26.51a41.67,41.67,0,0,0,16.11,19.32,45.49,45.49,0,0,0,25.42,7.19H629Z" transform="translate(0.01 0.01)"/><path class="cls-2" d="M975.05,170.86h36.17l-25.8,154.79H949.25L966,225l-37.44,45.37H892.87l-23.7-46.5-17,101.77H816l25.8-154.79H878l37.1,72.57Z" transform="translate(0.01 0.01)"/><path class="cls-2" d="M1138.15,301.39h-75.68q-11.91,0-18.92-8.43t-5-20.33l16.92-101.54H1019.3l-16.93,101.54a47.91,47.91,0,0,0,2.63,26.51,41.7,41.7,0,0,0,16.1,19.32,45.57,45.57,0,0,0,25.42,7.19h77.29Z" transform="translate(0.01 0.01)"/></g></g></svg>
