<svg width="586" height="390" viewBox="0 0 586 390" fill="none" xmlns="http://www.w3.org/2000/svg">
<path d="M578 1H8C4.13401 1 1 4.13401 1 8.00001V382C1 385.866 4.13402 389 8.00001 389H578C581.866 389 585 385.866 585 382V8C585 4.13401 581.866 1 578 1Z" fill="white"/>
<path d="M85.5 50.5H30.5C26.3643 50.5 23 47.1357 23 43C23 38.8643 26.3643 35.5 30.5 35.5H85.5C89.6357 35.5 93 38.8643 93 43C93 47.1357 89.6357 50.5 85.5 50.5Z" fill="#D8D8D8"/>
<path d="M125.5 114.5H30.5C26.3643 114.5 23 111.136 23 107C23 102.864 26.3643 99.5 30.5 99.5H125.5C129.636 99.5 133 102.864 133 107C133 111.136 129.636 114.5 125.5 114.5Z" fill="#D8D8D8"/>
<path d="M177 142.5H29C25.6914 142.5 23 139.809 23 136.5C23 133.191 25.6914 130.5 29 130.5H177C180.309 130.5 183 133.191 183 136.5C183 139.809 180.309 142.5 177 142.5Z" fill="#D8D8D8"/>
<path d="M177 160.5H29C25.6914 160.5 23 157.809 23 154.5C23 151.191 25.6914 148.5 29 148.5H177C180.309 148.5 183 151.191 183 154.5C183 157.809 180.309 160.5 177 160.5Z" fill="#D8D8D8"/>
<path d="M178.5 340.5H27.5C25.0185 340.5 23 338.481 23 336C23 333.519 25.0185 331.5 27.5 331.5H178.5C180.981 331.5 183 333.519 183 336C183 338.481 180.981 340.5 178.5 340.5Z" fill="#D8D8D8"/>
<path d="M178.5 358.5H27.5C25.0185 358.5 23 356.481 23 354C23 351.519 25.0185 349.5 27.5 349.5H178.5C180.981 349.5 183 351.519 183 354C183 356.481 180.981 358.5 178.5 358.5Z" fill="#D8D8D8"/>
<path d="M464.5 46.5H439.5C435.364 46.5 432 43.1357 432 39C432 34.8643 435.364 31.5 439.5 31.5H464.5C468.636 31.5 472 34.8643 472 39C472 43.1357 468.636 46.5 464.5 46.5Z" fill="#D8D8D8"/>
<path d="M55.5 189.5H30.5C26.3643 189.5 23 186.136 23 182C23 177.864 26.3643 174.5 30.5 174.5H55.5C59.6357 174.5 63 177.864 63 182C63 186.136 59.6357 189.5 55.5 189.5Z" fill="#D8D8D8"/>
<path d="M509.5 46.5H484.5C480.364 46.5 477 43.1357 477 39C477 34.8643 480.364 31.5 484.5 31.5H509.5C513.636 31.5 517 34.8643 517 39C517 43.1357 513.636 46.5 509.5 46.5Z" fill="#D8D8D8"/>
<path d="M554.5 46.5H529.5C525.364 46.5 522 43.1357 522 39C522 34.8643 525.364 31.5 529.5 31.5H554.5C558.636 31.5 562 34.8643 562 39C562 43.1357 558.636 46.5 554.5 46.5Z" fill="#D8D8D8"/>
<path d="M553.217 261.5H260.783C255.94 261.5 252 257.56 252 252.717V86.2832C252 81.4404 255.94 77.5 260.783 77.5H553.217C558.06 77.5 562 81.4404 562 86.2832V252.717C562 257.56 558.06 261.5 553.217 261.5Z" fill="#007BFF"/>
<path d="M103 325.5C95.0049 325.5 88.5 318.995 88.5 311C88.5 303.005 95.0049 296.5 103 296.5C110.995 296.5 117.5 303.005 117.5 311C117.5 318.995 110.995 325.5 103 325.5Z" fill="#D8D8D8"/>
<path d="M368.5 340.5H217.5C215.019 340.5 213 338.481 213 336C213 333.519 215.019 331.5 217.5 331.5H368.5C370.981 331.5 373 333.519 373 336C373 338.481 370.981 340.5 368.5 340.5Z" fill="#D8D8D8"/>
<path d="M368.5 358.5H217.5C215.019 358.5 213 356.481 213 354C213 351.519 215.019 349.5 217.5 349.5H368.5C370.981 349.5 373 351.519 373 354C373 356.481 370.981 358.5 368.5 358.5Z" fill="#D8D8D8"/>
<path d="M293 325.5C285.005 325.5 278.5 318.995 278.5 311C278.5 303.005 285.005 296.5 293 296.5C300.995 296.5 307.5 303.005 307.5 311C307.5 318.995 300.995 325.5 293 325.5Z" fill="#D8D8D8"/>
<path d="M558.5 340.5H407.5C405.019 340.5 403 338.481 403 336C403 333.519 405.019 331.5 407.5 331.5H558.5C560.981 331.5 563 333.519 563 336C563 338.481 560.981 340.5 558.5 340.5Z" fill="#D8D8D8"/>
<path d="M558.5 358.5H407.5C405.019 358.5 403 356.481 403 354C403 351.519 405.019 349.5 407.5 349.5H558.5C560.981 349.5 563 351.519 563 354C563 356.481 560.981 358.5 558.5 358.5Z" fill="#D8D8D8"/>
<path d="M483 325.5C475.005 325.5 468.5 318.995 468.5 311C468.5 303.005 475.005 296.5 483 296.5C490.995 296.5 497.5 303.005 497.5 311C497.5 318.995 490.995 325.5 483 325.5Z" fill="#D8D8D8"/>
</svg>
