<svg width="351" height="354" viewBox="0 0 351 354" fill="none" xmlns="http://www.w3.org/2000/svg">
<rect x="74.5" y="137" width="206" height="209" rx="17" fill="#4CA154" stroke="#4CA154" stroke-width="16"/>
<path d="M94 87.2356V46.5C94 45.3954 94.8954 44.5 96 44.5H259C260.105 44.5 261 45.3954 261 46.5V87.2469C261 88.2002 260.311 89.0245 259.376 89.2098C197.48 101.475 161.095 101.721 95.6388 89.2013C94.6974 89.0213 94 88.194 94 87.2356Z" fill="#4CA154" stroke="#4CA154" stroke-width="16"/>
<path d="M58.5964 34.0996L157.086 8.10931C157.359 8.03725 157.644 8.02384 157.923 8.06996L293.95 30.5849C296.043 30.9313 296.228 33.869 294.195 34.4748L203.939 61.3691C203.65 61.4553 203.345 61.4749 203.048 61.4266L58.7863 38.0075C56.6548 37.6615 56.5086 34.6505 58.5964 34.0996Z" fill="#4CA154" stroke="#4CA154" stroke-width="16"/>
<circle cx="132.5" cy="221" r="18" stroke="white" stroke-width="16"/>
<circle cx="207.5" cy="221" r="18" stroke="white" stroke-width="16"/>
<path d="M168 283C187.2 303.073 200.078 305.01 230 290.5" stroke="white" stroke-width="16"/>
<path d="M21 185H43V290.5H21C13.8203 290.5 8 284.68 8 277.5V198C8 190.82 13.8203 185 21 185Z" fill="#4CA154" stroke="#4CA154" stroke-width="16"/>
<path d="M330 185H308V290.5H330C337.18 290.5 343 284.68 343 277.5V198C343 190.82 337.18 185 330 185Z" fill="#4CA154" stroke="#4CA154" stroke-width="16"/>
</svg>
