<svg width="96" height="85" viewBox="0 0 96 85" fill="none" xmlns="http://www.w3.org/2000/svg">
<rect width="96" height="85" rx="6" fill="#2D2D2F"/>
<path d="M32.6484 28.7109L23.3672 57H15.8906L28.5703 22.875H33.3281L32.6484 28.7109ZM40.3594 57L31.0547 28.7109L30.3047 22.875H35.1094L47.8594 57H40.3594ZM39.9375 44.2969V49.8047H21.9141V44.2969H39.9375ZM77.6484 39.1641V52.6875C77.1172 53.3281 76.2969 54.0234 75.1875 54.7734C74.0781 55.5078 72.6484 56.1406 70.8984 56.6719C69.1484 57.2031 67.0312 57.4688 64.5469 57.4688C62.3438 57.4688 60.3359 57.1094 58.5234 56.3906C56.7109 55.6562 55.1484 54.5859 53.8359 53.1797C52.5391 51.7734 51.5391 50.0547 50.8359 48.0234C50.1328 45.9766 49.7812 43.6406 49.7812 41.0156V38.8828C49.7812 36.2578 50.1172 33.9219 50.7891 31.875C51.4766 29.8281 52.4531 28.1016 53.7188 26.6953C54.9844 25.2891 56.4922 24.2188 58.2422 23.4844C59.9922 22.75 61.9375 22.3828 64.0781 22.3828C67.0469 22.3828 69.4844 22.8672 71.3906 23.8359C73.2969 24.7891 74.75 26.1172 75.75 27.8203C76.7656 29.5078 77.3906 31.4453 77.625 33.6328H70.8047C70.6328 32.4766 70.3047 31.4688 69.8203 30.6094C69.3359 29.75 68.6406 29.0781 67.7344 28.5938C66.8438 28.1094 65.6875 27.8672 64.2656 27.8672C63.0938 27.8672 62.0469 28.1094 61.125 28.5938C60.2188 29.0625 59.4531 29.7578 58.8281 30.6797C58.2031 31.6016 57.7266 32.7422 57.3984 34.1016C57.0703 35.4609 56.9062 37.0391 56.9062 38.8359V41.0156C56.9062 42.7969 57.0781 44.375 57.4219 45.75C57.7656 47.1094 58.2734 48.2578 58.9453 49.1953C59.6328 50.1172 60.4766 50.8125 61.4766 51.2812C62.4766 51.75 63.6406 51.9844 64.9688 51.9844C66.0781 51.9844 67 51.8906 67.7344 51.7031C68.4844 51.5156 69.0859 51.2891 69.5391 51.0234C70.0078 50.7422 70.3672 50.4766 70.6172 50.2266V44.1797H64.1953V39.1641H77.6484Z" fill="white"/>
</svg>
