<svg width="2052" height="549" viewBox="0 0 2052 549" fill="none" xmlns="http://www.w3.org/2000/svg">
<rect width="2052" height="549" fill="#2A2B4C"/>
<path fill-rule="evenodd" clip-rule="evenodd" d="M406.248 151V398.8H498.996V360.214H460.41V298.264H498.996V251.89H460.41V189.94H498.996V151H406.248ZM509.655 151V398.8H563.817V274.9L586.827 398.8H602.403L625.767 274.9V398.8H679.929V151H617.979L594.615 298.264L571.251 151H509.655ZM744.661 360.214V298.264H752.449C756.697 298.264 759.883 301.804 759.883 306.052V352.426C759.883 356.674 756.697 360.214 752.449 360.214H744.661ZM783.955 275.254L783.247 274.9C800.239 274.9 814.399 261.094 814.399 244.102V182.152C814.399 165.16 800.239 151 783.247 151H690.499V398.8H783.247C800.239 398.8 814.399 384.994 814.399 368.002V306.052C814.399 289.06 800.947 275.608 783.955 275.254ZM752.449 251.89H744.661V189.94H752.449C756.697 189.94 759.883 193.48 759.883 197.728V244.102C759.883 248.35 756.697 251.89 752.449 251.89ZM917.421 151H824.673V398.8H917.421V360.214H878.835V298.264H917.421V251.89H878.835V189.94H917.421V151ZM982.242 360.214V189.94H989.676C994.278 189.94 997.464 193.48 997.464 197.728V352.426C997.464 356.674 994.278 360.214 989.676 360.214H982.242ZM1051.98 368.002V182.152C1051.98 165.16 1037.82 151 1020.83 151H928.08V398.8H1020.83C1037.82 398.8 1051.98 384.994 1051.98 368.002ZM428 314.8H410V332.8H428V314.8Z" fill="white"/>
<rect x="357" y="314.8" width="18" height="18" fill="white"/>
<rect x="340" y="291.8" width="11" height="18" fill="white"/>
<rect x="366" y="214.8" width="30" height="30" fill="white"/>
<rect x="1674.52" y="240.378" width="26.6955" height="26.6955" fill="white"/>
<rect x="1700.32" y="283.091" width="10.6782" height="16.0173" fill="white"/>
<rect x="1674.52" y="298.218" width="16.0173" height="16.0173" fill="white"/>
<path fill-rule="evenodd" clip-rule="evenodd" d="M1063 367.646V181.244C1063 164.202 1076.85 150 1093.89 150H1156.02C1173.07 150 1187.27 164.202 1187.27 181.244V235.567H1132.59V196.867C1132.59 192.606 1129.39 189.056 1124.78 189.056C1120.52 189.056 1117.32 192.606 1117.32 196.867V352.024C1117.32 356.284 1120.52 359.835 1124.78 359.835C1129.39 359.835 1132.59 356.284 1132.59 352.024V313.323H1187.27V367.646C1187.27 384.688 1173.07 398.535 1156.02 398.535H1093.89C1076.85 398.535 1063 384.688 1063 367.646ZM1196.14 398.535V150H1250.47V251.189H1265.73V150H1320.06V398.535H1265.73V297.701H1250.47V398.535H1196.14ZM1406.34 398.535L1402.79 359.835H1379.36L1375.45 398.535H1328.94L1359.83 150H1421.96L1453.21 398.535H1406.34ZM1383.62 313.323H1398.18L1390.72 235.567L1383.62 313.323ZM1516.06 398.535H1461.74V150H1516.06V398.535ZM1524.84 398.535V150H1579.17L1602.24 274.268V150H1648.76V225.251H1642.48V251.946H1648.76V303.557H1634.47V319.575H1648.76V398.535H1594.43L1571.35 274.268V398.535H1524.84Z" fill="white"/>
</svg>
