<svg width="1371" height="249" viewBox="0 0 1371 249" fill="none" xmlns="http://www.w3.org/2000/svg">
<path fill-rule="evenodd" clip-rule="evenodd" d="M66.248 1V248.8H158.996V210.214H120.41V148.264H158.996V101.89H120.41V39.94H158.996V1H66.248ZM169.655 1V248.8H223.817V124.9L246.827 248.8H262.403L285.767 124.9V248.8H339.929V1H277.979L254.615 148.264L231.251 1H169.655ZM404.661 210.214V148.264H412.449C416.697 148.264 419.883 151.804 419.883 156.052V202.426C419.883 206.674 416.697 210.214 412.449 210.214H404.661ZM443.955 125.254L443.247 124.9C460.239 124.9 474.399 111.094 474.399 94.102V32.152C474.399 15.16 460.239 1 443.247 1H350.499V248.8H443.247C460.239 248.8 474.399 234.994 474.399 218.002V156.052C474.399 139.06 460.947 125.608 443.955 125.254ZM412.449 101.89H404.661V39.94H412.449C416.697 39.94 419.883 43.48 419.883 47.728V94.102C419.883 98.35 416.697 101.89 412.449 101.89ZM577.421 1H484.673V248.8H577.421V210.214H538.835V148.264H577.421V101.89H538.835V39.94H577.421V1ZM642.242 210.214V39.94H649.676C654.278 39.94 657.464 43.48 657.464 47.728V202.426C657.464 206.674 654.278 210.214 649.676 210.214H642.242ZM711.98 218.002V32.152C711.98 15.16 697.82 1 680.828 1H588.08V248.8H680.828C697.82 248.8 711.98 234.994 711.98 218.002ZM88 164.8H70V182.8H88V164.8Z" fill="#2A2B4C"/>
<rect x="17" y="164.8" width="18" height="18" fill="#2A2B4C"/>
<rect y="141.8" width="11" height="18" fill="#2A2B4C"/>
<rect x="26" y="64.7998" width="30" height="30" fill="#2A2B4C"/>
<rect x="1334.52" y="90.3779" width="26.6955" height="26.6955" fill="#2A2B4C"/>
<rect x="1360.32" y="133.091" width="10.6782" height="16.0173" fill="#2A2B4C"/>
<rect x="1334.52" y="148.219" width="16.0173" height="16.0173" fill="#2A2B4C"/>
<path fill-rule="evenodd" clip-rule="evenodd" d="M723 217.646V31.2444C723 14.202 736.847 0 753.889 0H816.023C833.066 0 847.268 14.202 847.268 31.2444V85.5672H792.59V46.8667C792.59 42.6061 789.394 39.0556 784.779 39.0556C780.518 39.0556 777.323 42.6061 777.323 46.8667V202.024C777.323 206.284 780.518 209.835 784.779 209.835C789.394 209.835 792.59 206.284 792.59 202.024V163.323H847.268V217.646C847.268 234.688 833.066 248.535 816.023 248.535H753.889C736.847 248.535 723 234.688 723 217.646ZM856.144 248.535V0H910.467V101.189H925.734V0H980.057V248.535H925.734V147.701H910.467V248.535H856.144ZM1066.34 248.535L1062.79 209.835H1039.36L1035.45 248.535H988.941L1019.83 0H1081.96L1113.21 248.535H1066.34ZM1043.62 163.323H1058.18L1050.72 85.5672L1043.62 163.323ZM1176.06 248.535H1121.74V0H1176.06V248.535ZM1184.84 248.535V0H1239.17L1262.24 124.268V0H1308.76V75.2506H1302.48V101.946H1308.76V153.557H1294.47V169.575H1308.76V248.535H1254.43L1231.35 124.268V248.535H1184.84Z" fill="#2A2B4C"/>
</svg>
