<svg width="479" height="108" viewBox="0 0 479 108" fill="none" xmlns="http://www.w3.org/2000/svg">
<path fill-rule="evenodd" clip-rule="evenodd" d="M56.1537 8.9569C58.6168 8.9569 60.6135 6.96017 60.6135 4.49707C60.6135 2.03397 58.6168 0.0372314 56.1537 0.0372314C53.6906 0.0372314 51.6939 2.03397 51.6939 4.49707C51.6939 6.96017 53.6906 8.9569 56.1537 8.9569ZM38.4182 29.3537C37.2703 27.8698 36.3474 26.0164 36.833 24.2042C37.3186 22.392 39.0445 21.2483 40.7806 20.5372C42.9589 19.645 44.71 17.7815 45.3663 15.3323C46.4819 11.1688 44.0111 6.88914 39.8475 5.77352C35.684 4.6579 31.4044 7.12874 30.2887 11.2923C29.6325 13.7416 30.2173 16.2311 31.6578 18.093C32.8058 19.5768 33.7287 21.4301 33.2431 23.2423C32.7575 25.0544 31.0317 26.198 29.2955 26.909C27.1171 27.8012 25.3658 29.6647 24.7096 32.1141C23.5939 36.2776 26.0648 40.5572 30.2283 41.6728C34.3919 42.7885 38.6715 40.3176 39.7871 36.1541C40.4434 33.7049 39.8586 31.2155 38.4182 29.3537ZM86.1482 38.6257C84.3362 38.1402 82.483 39.063 80.9994 40.2109C79.1375 41.6515 76.6479 42.2364 74.1986 41.5801C70.035 40.4645 67.5642 36.1849 68.6798 32.0213C69.7954 27.8578 74.075 25.3869 78.2386 26.5026C80.6877 27.1588 82.5512 28.9099 83.4434 31.0881C84.1546 32.8243 85.2983 34.5504 87.1106 35.036C88.9228 35.5215 90.7761 34.5988 92.2601 33.4509C94.1219 32.0108 96.6111 31.4262 99.0601 32.0824C103.224 33.198 105.694 37.4776 104.579 41.6412C103.463 45.8047 99.1836 48.2755 95.0201 47.1599C92.5706 46.5036 90.707 44.7521 89.8148 42.5734C89.1039 40.8373 87.9604 39.1113 86.1482 38.6257ZM103.562 77.1769C100.514 80.2249 95.5723 80.2249 92.5243 77.1769C90.7315 75.3841 89.9933 72.9362 90.3095 70.6038C90.5616 68.7447 90.434 66.6783 89.1074 65.3517C87.7808 64.0251 85.7143 63.8976 83.8553 64.1497C81.5228 64.466 79.0748 63.7277 77.2819 61.9349C74.234 58.8869 74.234 53.9453 77.2819 50.8973C80.3299 47.8494 85.2715 47.8494 88.3195 50.8973C90.1127 52.6906 90.8509 55.1394 90.534 57.4724C90.2816 59.3311 90.4089 61.3973 91.7353 62.7236C93.0617 64.05 95.1279 64.1774 96.9867 63.9249C99.3197 63.6079 101.769 64.3461 103.562 66.1394C106.61 69.1873 106.61 74.129 103.562 77.1769ZM64.1201 96.0379C63.0045 100.201 65.4753 104.481 69.6389 105.597C73.8024 106.712 78.082 104.241 79.1977 100.078C79.854 97.6285 79.2691 95.139 77.8285 93.2771C76.6805 91.7934 75.7578 89.9402 76.2433 88.1282C76.7288 86.3162 78.4545 85.1727 80.1904 84.4617C82.3688 83.5695 84.1201 81.706 84.7764 79.2567C85.892 75.0932 83.4212 70.8136 79.2576 69.6979C75.0941 68.5823 70.8144 71.0531 69.6988 75.2167C69.0425 77.6661 69.6275 80.1558 71.0681 82.0177C72.2161 83.5013 73.1389 85.3545 72.6534 87.1665C72.1678 88.9784 70.4422 90.1219 68.7063 90.8328C66.5278 91.7249 64.7764 93.5885 64.1201 96.0379ZM28.837 99.7095C26.6818 95.9765 27.9607 91.2033 31.6937 89.048C33.8898 87.7801 36.4459 87.7008 38.6172 88.6104C40.3475 89.3353 42.3764 89.747 44.0011 88.809C45.6257 87.871 46.2836 85.908 46.521 84.047C46.8189 81.7117 48.1657 79.5377 50.3618 78.2697C54.0947 76.1145 58.868 77.3935 61.0232 81.1264C63.1784 84.8594 61.8994 89.6327 58.1665 91.7879C55.9707 93.0556 53.4149 93.1351 51.2438 92.2259C49.5133 91.5012 47.4842 91.0895 45.8595 92.0275C44.2347 92.9656 43.5767 94.9288 43.3391 96.7898C43.041 99.1248 41.6942 101.298 39.4984 102.566C35.7655 104.721 30.9922 103.442 28.837 99.7095ZM28.4865 71.1594C27.0029 72.3074 25.1498 73.2301 23.3379 72.7446C21.5259 72.2591 20.3825 70.5334 19.6716 68.7974C18.7795 66.6187 16.9159 64.8673 14.4664 64.2109C10.3028 63.0953 6.02323 65.5661 4.90761 69.7297C3.792 73.8932 6.26283 78.1728 10.4264 79.2885C12.8756 79.9447 15.365 79.3599 17.2268 77.9196C18.7106 76.7717 20.5639 75.8489 22.3759 76.3345C24.188 76.82 25.3316 78.5458 26.0426 80.2818C26.9349 82.4601 28.7983 84.2113 31.2476 84.8676C35.4111 85.9832 39.6907 83.5124 40.8064 79.3488C41.922 75.1853 39.4511 70.9056 35.2876 69.79C32.8381 69.1337 30.3484 69.7187 28.4865 71.1594ZM5.92479 34.1938C8.97272 31.1459 13.9144 31.1459 16.9623 34.1938C18.7553 35.9868 19.4935 38.4351 19.177 40.7677C18.9248 42.6264 19.0524 44.6924 20.3787 46.0188C21.7052 47.3453 23.7716 47.4727 25.6305 47.2203C27.9634 46.9035 30.412 47.6418 32.2051 49.4349C35.2531 52.4828 35.2531 57.4245 32.2051 60.4724C29.1572 63.5204 24.2155 63.5204 21.1676 60.4724C19.3746 58.6794 18.6364 56.231 18.9529 53.8983C19.2052 52.0397 19.0776 49.9737 17.7513 48.6474C16.4248 47.3209 14.3585 47.1935 12.4996 47.4459C10.1667 47.7627 7.71801 47.0245 5.92479 45.2313C2.87686 42.1834 2.87686 37.2417 5.92479 34.1938ZM65.4846 22.5615C63.8601 23.4994 63.2023 25.4621 62.965 27.3228C62.6672 29.6582 61.3204 31.8323 59.1242 33.1003C55.3912 35.2555 50.618 33.9765 48.4627 30.2436C46.3075 26.5106 47.5865 21.7374 51.3195 19.5821C53.5153 18.3144 56.0712 18.2349 58.2424 19.1443C59.9728 19.869 62.0019 20.2807 63.6267 19.3427C65.2513 18.4047 65.9093 16.4418 66.147 14.5809C66.4451 12.2461 67.7918 10.0725 69.9876 8.8048C73.7205 6.64959 78.4938 7.92858 80.649 11.6615C82.8042 15.3945 81.5252 20.1677 77.7923 22.323C75.596 23.591 73.0396 23.6702 70.8681 22.7603C69.138 22.0353 67.1091 21.6236 65.4846 22.5615ZM104.469 60.245C106.932 60.245 108.928 58.2483 108.928 55.7852C108.928 53.3221 106.932 51.3253 104.469 51.3253C102.006 51.3253 100.009 53.3221 100.009 55.7852C100.009 58.2483 102.006 60.245 104.469 60.245ZM96.2923 21.5931C96.2923 24.0562 94.2955 26.053 91.8324 26.053C89.3693 26.053 87.3726 24.0562 87.3726 21.5931C87.3726 19.13 89.3693 17.1333 91.8324 17.1333C94.2955 17.1333 96.2923 19.13 96.2923 21.5931ZM23.4484 20.1063C23.4484 22.5694 21.4516 24.5662 18.9885 24.5662C16.5254 24.5662 14.5287 22.5694 14.5287 20.1063C14.5287 17.6432 16.5254 15.6465 18.9885 15.6465C21.4516 15.6465 23.4484 17.6432 23.4484 20.1063ZM4.86563 60.245C7.32873 60.245 9.32546 58.2483 9.32546 55.7852C9.32546 53.3221 7.32873 51.3253 4.86563 51.3253C2.40253 51.3253 0.405792 53.3221 0.405792 55.7852C0.405792 58.2483 2.40253 60.245 4.86563 60.245ZM22.7052 89.2338C22.7052 91.6969 20.7084 93.6936 18.2453 93.6936C15.7822 93.6936 13.7855 91.6969 13.7855 89.2338C13.7855 86.7707 15.7822 84.7739 18.2453 84.7739C20.7084 84.7739 22.7052 86.7707 22.7052 89.2338ZM52.4373 107.817C54.9004 107.817 56.8971 105.82 56.8971 103.357C56.8971 100.894 54.9004 98.8971 52.4373 98.8971C49.9742 98.8971 47.9774 100.894 47.9774 103.357C47.9774 105.82 49.9742 107.817 52.4373 107.817ZM95.5487 90.7205C95.5487 93.1836 93.552 95.1803 91.0889 95.1803C88.6258 95.1803 86.6291 93.1836 86.6291 90.7205C86.6291 88.2574 88.6258 86.2606 91.0889 86.2606C93.552 86.2606 95.5487 88.2574 95.5487 90.7205ZM54.4752 68.5612C61.8667 68.5612 67.8587 62.5692 67.8587 55.1777C67.8587 47.7862 61.8667 41.7942 54.4752 41.7942C47.0837 41.7942 41.0917 47.7862 41.0917 55.1777C41.0917 62.5692 47.0837 68.5612 54.4752 68.5612Z" fill="black"/>
<path d="M250.204 68.8522C250.153 73.1945 251.423 77.4497 253.845 81.054C256.267 84.6583 259.727 87.4415 263.767 89.0347C268.868 91.0798 274.096 91.2197 279.285 89.4214C284.529 87.6116 288.097 83.7534 291.09 79.1582C292.462 79.8772 293.815 80.583 295.165 81.297C296.061 81.7692 296.936 82.2842 297.854 82.712C298.489 83.0065 298.625 83.2977 298.285 83.9591C295.786 88.8275 291.982 92.3862 287.262 95.0416C282.184 97.8995 276.696 99.0841 270.916 98.908C263.03 98.6694 256.145 95.8889 250.493 90.3526C245.401 85.3674 242.374 79.2668 241.271 72.2217C240.365 66.4287 240.508 60.667 242.285 55.0616C245.539 44.7918 252.086 37.4885 262.583 34.5335C272.587 31.7168 281.969 33.321 289.947 40.4088C294.94 44.851 297.928 50.5009 299.28 57.026C300.045 60.7164 300.022 64.4297 299.537 68.1448C299.47 68.6548 299.302 68.8983 298.775 68.8522C298.53 68.8308 298.282 68.8522 298.035 68.8522H250.204ZM290.434 60.4992C290.225 53.6845 287.285 48.3834 281.699 44.8066C274.74 40.3529 267.446 40.4713 260.383 44.6026C254.402 48.1021 251.202 53.5545 250.271 60.4992H290.434Z" fill="black"/>
<path d="M478.447 53.9182C478.534 61.674 477.563 69.2735 474.701 76.5439C472.006 83.3932 468.019 89.2914 461.928 93.5922C457.358 96.8202 452.249 98.4935 446.67 98.8406C441.502 99.1697 436.497 98.5346 431.731 96.4451C425.668 93.7863 421.037 89.4659 417.485 83.941C413.663 77.9884 411.512 71.4189 410.494 64.4495C409.537 57.9075 409.471 51.266 410.298 44.7063C411.356 36.2249 413.964 28.2931 419.183 21.4076C423.577 15.6163 429.179 11.4373 436.361 9.871C446.891 7.56762 456.578 9.35438 464.824 16.7153C469.503 20.891 472.657 26.1147 474.888 31.9258C477.068 37.6037 478.134 43.5135 478.427 49.5697C478.508 51.0175 478.447 52.4703 478.447 53.9182ZM469.251 53.9741C469.22 49.7457 468.901 45.5717 468.008 41.4602C466.838 36.0736 464.841 31.0456 461.494 26.605C454.977 17.9542 444.739 15.9404 436.114 19.3823C430.497 21.6248 426.781 25.9634 424.046 31.2036C420.616 37.7846 419.406 44.9037 419.225 52.2351C419.1 56.3184 419.386 60.404 420.081 64.4298C420.991 69.5466 422.569 74.4264 425.354 78.8391C429.058 84.7028 434.036 88.8341 441.132 89.8245C446.088 90.5172 450.808 89.7538 455.109 87.0736C459.859 84.1122 463.006 79.7917 465.263 74.7736C468.253 68.1563 469.179 61.1343 469.251 53.9774V53.9741Z" fill="black"/>
<path d="M444.229 47.8472H444.227C440.869 47.8472 438.146 50.5697 438.146 53.9281V53.9297C438.146 57.2881 440.869 60.0106 444.227 60.0106H444.229C447.587 60.0106 450.309 57.2881 450.309 53.9297V53.9281C450.309 50.5697 447.587 47.8472 444.229 47.8472Z" fill="black"/>
<path d="M230.566 56.0882C230.544 49.3574 227.902 43.7125 222.91 39.2571C216.811 33.8129 209.623 32.1199 201.716 33.8985C195.923 35.2015 191.272 38.3292 188.225 43.5743C187.971 44.0103 187.731 44.4512 187.437 44.9646C187.264 44.7079 187.153 44.5566 187.058 44.397C185.613 41.9787 183.729 39.8511 181.504 38.1235C181.43 38.061 181.351 37.9985 181.263 37.9343C180.77 37.5609 180.26 37.2071 179.735 36.8698C175.533 34.1222 171.813 33.2355 167.797 33.2355C165.594 33.1833 163.393 33.4077 161.245 33.9034C155.981 35.0897 151.645 37.7879 148.613 42.2203H146.836V41.2331C146.836 39.369 146.797 37.5033 146.856 35.6392C146.881 34.8166 146.603 34.6027 145.826 34.6389C144.595 34.6981 143.358 34.6915 142.126 34.6389C141.392 34.6092 141.139 34.8034 141.139 35.5964C141.173 41.2726 141.157 46.9488 141.157 52.6233C141.157 67.2366 141.151 81.8504 141.14 96.4648C141.14 97.2282 141.356 97.452 142.108 97.4339C144.355 97.3895 146.604 97.4191 148.853 97.4174C150.016 97.4174 150.016 97.4174 150.016 96.2427C150.016 84.2618 150.02 72.2804 150.026 60.2985C150.022 59.0118 150.097 57.7261 150.25 56.4486C151.155 49.1847 156.413 42.4539 165.092 42.166C165.834 42.1411 166.578 42.1587 167.318 42.2186C167.483 42.2334 167.636 42.2466 167.794 42.2663C172.058 42.7352 175.576 44.7441 178.234 48.5184C180.615 51.9043 181.407 55.7576 181.413 59.8033C181.436 72.0046 181.436 84.2054 181.413 96.4056C181.413 97.1953 181.639 97.447 182.433 97.4306C184.681 97.3845 186.928 97.4158 189.179 97.4142C190.278 97.4142 190.278 97.4141 190.278 96.2772C190.278 84.2947 190.263 72.3139 190.298 60.333C190.31 58.7453 190.45 57.1612 190.719 55.5963C191.951 48.2058 197.55 42.4029 205.551 42.1512C210.312 42.0014 214.381 43.5447 217.535 47.1906C220.511 50.6309 221.683 54.7375 221.693 59.2011C221.721 71.5406 221.703 83.8802 221.703 96.2197C221.703 97.4191 221.703 97.4207 222.933 97.4207C225.098 97.4207 227.264 97.4207 229.43 97.4207C230.582 97.4207 230.582 97.4207 230.582 96.2378C230.579 82.8486 230.61 69.4676 230.566 56.0882Z" fill="black"/>
<path d="M399.355 56.0882C399.334 49.3574 396.692 43.7125 391.7 39.2571C385.601 33.8129 378.413 32.1199 370.506 33.8985C364.713 35.2015 360.061 38.3292 357.014 43.5743C356.761 44.0103 356.521 44.4512 356.226 44.9646C356.054 44.7079 355.943 44.5566 355.848 44.397C354.404 41.9797 352.522 39.8528 350.298 38.1252C350.224 38.0627 350.145 38.0001 350.058 37.936C349.565 37.5625 349.055 37.2088 348.53 36.8715C344.328 34.1239 340.608 33.2371 336.592 33.2371C334.389 33.1849 332.188 33.4093 330.04 33.9051C324.767 35.0913 320.44 37.7896 317.408 42.2219H315.631V41.2348C315.631 39.3707 315.592 37.5049 315.651 35.6408C315.675 34.8182 315.397 34.6043 314.621 34.6405C313.39 34.6997 312.153 34.6931 310.921 34.6405C310.187 34.6109 309.933 34.805 309.933 35.5981C309.968 41.2742 309.952 46.9504 309.952 52.625C309.952 67.2382 309.946 81.8521 309.935 96.4665C309.935 97.2299 310.151 97.4536 310.903 97.4355C313.15 97.3911 315.399 97.4207 317.648 97.4191C318.81 97.4191 318.81 97.4191 318.81 96.2443C318.81 84.2635 318.813 72.2821 318.82 60.3001C318.815 59.0135 318.89 57.7277 319.043 56.4502C319.948 49.1863 325.206 42.4555 333.885 42.1676C334.628 42.1427 335.371 42.1603 336.111 42.2203C336.276 42.2351 336.429 42.2482 336.587 42.268C340.851 42.7369 344.369 44.7457 347.028 48.52C349.41 51.906 350.2 55.7592 350.206 59.8049C350.229 72.0062 350.229 84.207 350.206 96.4072C350.206 97.197 350.433 97.4487 351.226 97.4322C353.474 97.3862 355.723 97.4174 357.972 97.4158C359.071 97.4158 359.071 97.4158 359.073 96.2789C359.073 84.2964 359.056 72.3155 359.091 60.3347C359.103 58.747 359.244 57.163 359.512 55.5979C360.744 48.2074 366.343 42.4045 374.344 42.1528C379.105 42.0031 383.174 43.5464 386.328 47.1923C389.305 50.6325 390.476 54.7391 390.486 59.2027C390.514 71.5423 390.496 83.8818 390.496 96.2213C390.496 97.4207 390.496 97.4223 391.726 97.4223C393.892 97.4223 396.057 97.4223 398.224 97.4223C399.375 97.4223 399.375 97.4224 399.375 96.2394C399.369 82.8486 399.4 69.4676 399.355 56.0882Z" fill="black"/>
</svg>
