<svg
  fill="currentColor"
  viewBox="0 0 56 56"
  xmlns="http://www.w3.org/2000/svg"
>
  <g id="SVGRepo_bgCarrier" stroke-width="0"></g>
  <g
    id="SVGRepo_tracerCarrier"
    stroke-linecap="round"
    stroke-linejoin="round"
  ></g>
  <g id="SVGRepo_iconCarrier">
    <path d="M 15.5547 53.125 L 40.4453 53.125 C 45.2969 53.125 47.7109 50.6640 47.7109 45.7890 L 47.7109 24.5078 L 30.7422 24.5078 C 27.7422 24.5078 26.3359 23.0781 26.3359 20.0781 L 26.3359 2.8750 L 15.5547 2.8750 C 10.7266 2.8750 8.2891 5.3594 8.2891 10.2344 L 8.2891 45.7890 C 8.2891 50.6875 10.7266 53.125 15.5547 53.125 Z M 30.8125 21.2969 L 47.4531 21.2969 C 47.2891 20.3359 46.6094 19.3984 45.5078 18.2500 L 32.5703 5.1015 C 31.4922 3.9766 30.5078 3.2969 29.5234 3.1328 L 29.5234 20.0313 C 29.5234 20.875 29.9687 21.2969 30.8125 21.2969 Z M 18.9766 34.6562 C 18.0156 34.6562 17.3359 33.9766 17.3359 33.0625 C 17.3359 32.1484 18.0156 31.4687 18.9766 31.4687 L 37.0469 31.4687 C 37.9844 31.4687 38.7109 32.1484 38.7109 33.0625 C 38.7109 33.9766 37.9844 34.6562 37.0469 34.6562 Z M 18.9766 43.5859 C 18.0156 43.5859 17.3359 42.9062 17.3359 41.9922 C 17.3359 41.0781 18.0156 40.3984 18.9766 40.3984 L 37.0469 40.3984 C 37.9844 40.3984 38.7109 41.0781 38.7109 41.9922 C 38.7109 42.9062 37.9844 43.5859 37.0469 43.5859 Z"></path>
  </g>
</svg>
