<svg id="visual" viewBox="0 0 900 300" width="900" height="300" xmlns="http://www.w3.org/2000/svg" xmlns:xlink="http://www.w3.org/1999/xlink" version="1.1"><path d="M484 300L542 300L542 280L564 280L564 260L490 260L490 240L484 240L484 220L637 220L637 200L570 200L570 180L567 180L567 160L629 160L629 140L580 140L580 120L567 120L567 100L457 100L457 80L531 80L531 60L615 60L615 40L504 40L504 20L490 20L490 0L900 0L900 20L900 20L900 40L900 40L900 60L900 60L900 80L900 80L900 100L900 100L900 120L900 120L900 140L900 140L900 160L900 160L900 180L900 180L900 200L900 200L900 220L900 220L900 240L900 240L900 260L900 260L900 280L900 280L900 300L900 300Z" fill="#8187fa"></path><path d="M536 300L660 300L660 280L640 280L640 260L649 260L649 240L620 240L620 220L574 220L574 200L613 200L613 180L659 180L659 160L632 160L632 140L637 140L637 120L502 120L502 100L558 100L558 80L608 80L608 60L550 60L550 40L564 40L564 20L631 20L631 0L900 0L900 20L900 20L900 40L900 40L900 60L900 60L900 80L900 80L900 100L900 100L900 120L900 120L900 140L900 140L900 160L900 160L900 180L900 180L900 200L900 200L900 220L900 220L900 240L900 240L900 260L900 260L900 280L900 280L900 300L900 300Z" fill="#797ff8"></path><path d="M642 300L651 300L651 280L623 280L623 260L680 260L680 240L565 240L565 220L669 220L669 200L557 200L557 180L688 180L688 160L612 160L612 140L658 140L658 120L588 120L588 100L662 100L662 80L553 80L553 60L662 60L662 40L628 40L628 20L701 20L701 0L900 0L900 20L900 20L900 40L900 40L900 60L900 60L900 80L900 80L900 100L900 100L900 120L900 120L900 140L900 140L900 160L900 160L900 180L900 180L900 200L900 200L900 220L900 220L900 240L900 240L900 260L900 260L900 280L900 280L900 300L900 300Z" fill="#7177f6"></path><path d="M684 300L658 300L658 280L652 280L652 260L693 260L693 240L618 240L618 220L614 220L614 200L593 200L593 180L601 180L601 160L713 160L713 140L701 140L701 120L717 120L717 100L665 100L665 80L635 80L635 60L594 60L594 40L646 40L646 20L689 20L689 0L900 0L900 20L900 20L900 40L900 40L900 60L900 60L900 80L900 80L900 100L900 100L900 120L900 120L900 140L900 140L900 160L900 160L900 180L900 180L900 200L900 200L900 220L900 220L900 240L900 240L900 260L900 260L900 280L900 280L900 300L900 300Z" fill="#696ff4"></path><path d="M670 300L736 300L736 280L762 280L762 260L700 260L700 240L754 240L754 220L688 220L688 200L735 200L735 180L726 180L726 160L763 160L763 140L662 140L662 120L739 120L739 100L703 100L703 80L762 80L762 60L690 60L690 40L652 40L652 20L753 20L753 0L900 0L900 20L900 20L900 40L900 40L900 60L900 60L900 80L900 80L900 100L900 100L900 120L900 120L900 140L900 140L900 160L900 160L900 180L900 180L900 200L900 200L900 220L900 220L900 240L900 240L900 260L900 260L900 280L900 280L900 300L900 300Z" fill="#6167f2"></path><path d="M717 300L754 300L754 280L739 280L739 260L735 260L735 240L790 240L790 220L761 220L761 200L772 200L772 180L754 180L754 160L749 160L749 140L754 140L754 120L782 120L782 100L701 100L701 80L748 80L748 60L721 60L721 40L730 40L730 20L746 20L746 0L900 0L900 20L900 20L900 40L900 40L900 60L900 60L900 80L900 80L900 100L900 100L900 120L900 120L900 140L900 140L900 160L900 160L900 180L900 180L900 200L900 200L900 220L900 220L900 240L900 240L900 260L900 260L900 280L900 280L900 300L900 300Z" fill="#585ff0"></path><path d="M813 300L784 300L784 280L772 280L772 260L813 260L813 240L811 240L811 220L794 220L794 200L805 200L805 180L757 180L757 160L818 160L818 140L818 140L818 120L773 120L773 100L817 100L817 80L792 80L792 60L791 60L791 40L811 40L811 20L814 20L814 0L900 0L900 20L900 20L900 40L900 40L900 60L900 60L900 80L900 80L900 100L900 100L900 120L900 120L900 140L900 140L900 160L900 160L900 180L900 180L900 200L900 200L900 220L900 220L900 240L900 240L900 260L900 260L900 280L900 280L900 300L900 300Z" fill="#4f57ed"></path><path d="M814 300L830 300L830 280L805 280L805 260L820 260L820 240L829 240L829 220L830 220L830 200L842 200L842 180L839 180L839 160L829 160L829 140L855 140L855 120L856 120L856 100L834 100L834 80L820 80L820 60L847 60L847 40L841 40L841 20L820 20L820 0L900 0L900 20L900 20L900 40L900 40L900 60L900 60L900 80L900 80L900 100L900 100L900 120L900 120L900 140L900 140L900 160L900 160L900 180L900 180L900 200L900 200L900 220L900 220L900 240L900 240L900 260L900 260L900 280L900 280L900 300L900 300Z" fill="#464feb"></path></svg>